<?xml version="1.0" encoding="UTF-8"?>
<svg version="1.1" xmlns="http://www.w3.org/2000/svg" width="2268" height="851">
<path d="M0 0 C658.68 0 1317.36 0 1996 0 C1996 186.45 1996 372.9 1996 565 C1818.79 565 1641.58 565 1459 565 C1459 555.1 1459 545.2 1459 535 C1626.31 535 1793.62 535 1966 535 C1966 368.35 1966 201.7 1966 30 C1327.12 30 688.24 30 30 30 C30 196.65 30 363.3 30 535 C200.28 535 370.56 535 546 535 C546 544.9 546 554.8 546 565 C365.82 565 185.64 565 0 565 C0 378.55 0 192.1 0 0 Z " fill="#0D8" transform="translate(150,126)"/>
<path d="M0 0 C7.22442585 6.27127821 13.56699713 13.70597934 16.98046875 22.76171875 C16.98046875 23.75171875 16.98046875 24.74171875 16.98046875 25.76171875 C19.52113692 23.23473461 22.04142361 20.69823581 24.5234375 18.11328125 C30.23863268 12.22080528 35.97723292 7.10089945 42.98046875 2.76171875 C44.04007813 2.10429687 45.0996875 1.446875 46.19140625 0.76953125 C62.76766956 -9.22817514 79.70383164 -14.83868785 99.23046875 -14.67578125 C100.49882568 -14.66893311 101.76718262 -14.66208496 103.07397461 -14.6550293 C121.52970788 -14.34046302 138.26024212 -9.7797214 152.98046875 1.76171875 C153.97046875 2.53386719 154.96046875 3.30601562 155.98046875 4.1015625 C165.72942904 12.31398504 170.92910487 24.43386694 172.98046875 36.76171875 C173.07822453 39.32869003 173.12830596 41.86860414 173.12763977 44.43531799 C173.13131646 45.20039215 173.13499315 45.9654663 173.13878125 46.75372452 C173.14978005 49.31311813 173.15365534 51.8724711 173.1574707 54.43188477 C173.16373789 56.26847461 173.17038492 58.10506319 173.17738342 59.94165039 C173.19838401 65.96629967 173.20877745 71.99094911 173.21875 78.015625 C173.22279811 80.08987885 173.22691505 82.16413257 173.23110008 84.23838615 C173.25013763 93.977367 173.26437547 103.71634029 173.27271205 113.45533615 C173.28249982 124.70374541 173.30886544 135.95195869 173.34921294 147.20029885 C173.37932779 155.89338557 173.39417625 164.58641593 173.39749306 173.27955383 C173.39984752 178.47312017 173.40886033 183.66647678 173.43395424 188.85998726 C173.45716101 193.74132257 173.46149815 198.62230891 173.45119286 203.503685 C173.45069569 205.29679713 173.45706914 207.08992605 173.4707489 208.88298607 C173.48835829 211.32744788 173.48141696 213.77064202 173.46821594 216.21510315 C173.48466981 217.2839212 173.48466981 217.2839212 173.50145608 218.37433153 C173.45763358 221.72592231 173.19922054 223.47576468 171.13748455 226.17088223 C165.23004523 230.52772107 156.50009611 229.20159435 149.41796875 229.38671875 C148.19385284 229.41990707 148.19385284 229.41990707 146.94500732 229.45376587 C134.65559048 229.77317979 122.39427261 229.78574015 110.10546875 229.44921875 C109.38745087 229.43215881 108.66943298 229.41509888 107.92965698 229.39752197 C105.886195 229.34614632 103.84367134 229.2812225 101.80078125 229.2109375 C100.07239014 229.15425903 100.07239014 229.15425903 98.30908203 229.09643555 C93.92049363 228.65513038 89.56234086 228.07994551 86.10546875 225.19921875 C82.51111695 217.41145652 84.04548088 207.51372957 84.33282471 199.13113403 C85.01506931 178.64301083 85.09986864 158.15572479 85.10429764 137.65868759 C85.10545799 135.34566472 85.1088017 133.03265464 85.11276245 130.71963501 C85.18138847 110.61685204 85.18138847 110.61685204 84.5546875 90.52734375 C84.51856354 89.79822281 84.48243958 89.06910187 84.44522095 88.31788635 C83.87541017 78.93678071 81.57511015 71.11453691 74.60546875 64.51171875 C67.44434843 59.73763854 59.28752349 59.82759211 50.98046875 60.76171875 C39.12359288 64.54701245 30.74115088 72.2710761 25.07421875 83.1484375 C22.23801907 92.51802573 22.84232469 102.95092983 22.91455078 112.66455078 C22.91922363 113.88082657 22.92389648 115.09710236 22.92871094 116.35023499 C22.94183015 119.64091098 22.95931657 122.93153329 22.97786951 126.2221818 C22.99546116 129.68137915 23.00471227 133.14059528 23.01412964 136.599823 C23.04736853 148.34786238 23.08947928 160.09582692 23.15185547 171.84375 C23.18634465 178.35550627 23.21016965 184.86721043 23.2220639 191.37904823 C23.23015839 195.49040633 23.2513876 199.60141994 23.28226876 203.71266675 C23.30199444 206.85936739 23.30210919 210.00607772 23.30517578 213.15283203 C23.31753265 214.29046494 23.32988953 215.42809784 23.34262085 216.60020447 C23.33994202 217.63731064 23.33726318 218.67441681 23.33450317 219.74295044 C23.34059947 221.09616488 23.34059947 221.09616488 23.34681892 222.476717 C22.90644916 225.22339422 22.15076715 226.08064751 19.98046875 227.76171875 C16.370103 229.17237484 12.55026796 228.90286796 8.72094727 228.92285156 C7.99687683 228.92781647 7.2728064 228.93278137 6.52679443 228.93789673 C4.13764488 228.95247136 1.74856166 228.95931158 -0.640625 228.96484375 C-2.30444846 228.97059796 -3.9682719 228.97635566 -5.63209534 228.9821167 C-9.11809599 228.99261253 -12.60407367 228.99846484 -16.09008789 229.00195312 C-20.55344717 229.00744261 -25.01650213 229.03148616 -29.47976589 229.05992508 C-32.91560248 229.07855961 -36.35136576 229.08375743 -39.78724861 229.085289 C-41.43266531 229.08831294 -43.0780808 229.09633277 -44.7234478 229.10947418 C-47.02607226 229.12655621 -49.32795287 229.12464981 -51.63061523 229.11816406 C-52.9398143 229.12180969 -54.24901337 229.12545532 -55.59788513 229.12921143 C-59.53737952 228.70610065 -62.19957049 227.58167951 -65.01953125 224.76171875 C-65.10966676 221.65283118 -65.13438149 218.56627001 -65.1171875 215.45727539 C-65.11572723 214.47786484 -65.11426697 213.49845428 -65.11276245 212.48936462 C-65.10894148 210.34771795 -65.10280943 208.20607449 -65.09469604 206.06443977 C-65.08191193 202.63991291 -65.0754076 199.21542501 -65.07055664 195.7908783 C-65.05718383 187.25243153 -65.03343691 178.71401983 -65.00915527 170.17559814 C-64.84448379 135.65891127 -64.84448379 135.65891127 -65.2829895 101.14639091 C-65.32986026 99.10248341 -65.36528163 97.05832296 -65.40014648 95.01417542 C-65.70672297 84.54534443 -67.04770158 74.04198704 -74.01953125 65.76171875 C-81.33015635 60.05943117 -89.07638733 59.75979908 -98.01953125 60.76171875 C-108.48399068 63.43721973 -119.26716206 69.83680645 -124.95153236 79.20461082 C-127.15220983 84.47368915 -126.69797745 90.12578211 -126.6472168 95.74926758 C-126.65240209 97.15443874 -126.65980712 98.5596032 -126.66925049 99.9647522 C-126.68475406 102.97630955 -126.68468734 105.98730995 -126.67224693 108.99888039 C-126.65264466 113.75981686 -126.66793739 118.52026129 -126.68769836 123.28117371 C-126.71479385 130.80682228 -126.71834823 138.33226888 -126.71192533 145.85795659 C-126.70096169 159.34971276 -126.72555029 172.84140931 -126.76567298 186.33310336 C-126.7787563 191.06740033 -126.77999649 195.80151273 -126.77154005 200.5358187 C-126.76792159 203.47500902 -126.7722074 206.41415191 -126.77838135 209.35333633 C-126.77998829 211.3696833 -126.77151194 213.38603035 -126.76277161 215.40235901 C-126.76670929 216.59814575 -126.77064697 217.7939325 -126.77470398 219.0259552 C-126.77374064 220.06733045 -126.77277731 221.10870569 -126.77178478 222.18163776 C-127.01953125 224.76171875 -127.01953125 224.76171875 -129.01953125 227.76171875 C-139.6978254 231.32115013 -152.50297423 229.9152879 -163.64428711 229.89208984 C-166.68283144 229.88676119 -169.72122597 229.8920442 -172.75976562 229.8984375 C-204.07957912 229.91311811 -204.07957912 229.91311811 -214.01953125 226.76171875 C-214.85833888 223.11936929 -215.13958927 219.77062309 -215.12632751 216.03633118 C-215.12405403 214.32013077 -215.12405403 214.32013077 -215.12173462 212.56925964 C-215.11499725 211.32219742 -215.10825989 210.07513519 -215.10131836 208.7902832 C-215.09775896 207.45556756 -215.09467387 206.12085058 -215.09202576 204.78613281 C-215.0854785 201.91062663 -215.07591874 199.03515165 -215.06413078 196.15966225 C-215.04571322 191.57545795 -215.03620081 186.99126099 -215.0282135 182.4070282 C-215.00417434 169.36921857 -214.96887255 156.33145396 -214.92358398 143.29370117 C-214.89864955 136.09281437 -214.88151817 128.89194657 -214.8720246 121.69102257 C-214.86666353 117.8994142 -214.85765964 114.10790591 -214.8386364 110.31633949 C-214.76064303 94.39747982 -214.98157645 78.55133202 -215.92797852 62.65698242 C-215.96858332 61.97018925 -216.00918812 61.28339608 -216.05102336 60.575791 C-216.8037894 48.14066628 -218.04547158 35.77679011 -219.43359375 23.3984375 C-221.20638899 5.34840066 -221.20638899 5.34840066 -218.66430664 1.94995117 C-212.11695466 -2.78004172 -200.12885813 -2.44867504 -192.375 -3.16088867 C-179.75713401 -4.32685879 -167.88727245 -6.3884088 -155.6965332 -9.90136719 C-147.98157657 -12.05309114 -141.01891611 -12.6289546 -133.01953125 -12.23828125 C-131.48932688 -8.08331351 -130.69252056 -4.37712704 -130.38671875 0.03515625 C-130.30292969 1.18886719 -130.21914063 2.34257812 -130.1328125 3.53125 C-130.05417969 4.72105469 -129.97554688 5.91085937 -129.89453125 7.13671875 C-129.80816406 8.34972656 -129.72179687 9.56273437 -129.6328125 10.8125 C-129.42144298 13.79515884 -129.21725049 16.77812913 -129.01953125 19.76171875 C-123.79736765 16.92856041 -119.19915522 13.72047438 -114.51953125 10.07421875 C-103.55858996 1.7178449 -92.13988499 -5.73230118 -79.01953125 -10.23828125 C-77.93671875 -10.63015625 -76.85390625 -11.02203125 -75.73828125 -11.42578125 C-50.74014678 -19.11751493 -21.18527951 -15.70396528 0 0 Z " fill="#0D8" transform="translate(473.01953125,338.23828125)"/>
<path d="M0 0 C1.83691581 5.39519308 2.18139289 9.74176851 1.79296875 15.3984375 C1.74811844 16.19166412 1.70326813 16.98489075 1.65705872 17.80215454 C1.5116989 20.32724182 1.349943 22.85096019 1.1875 25.375 C1.08940041 27.02988341 0.99238686 28.68483157 0.89648438 30.33984375 C0.52621544 36.65770154 0.13180526 42.97393376 -0.27856445 49.28930664 C-0.98717309 60.41705945 -1.31846833 71.5407062 -1.5625 82.6875 C-1.59376984 84.06424896 -1.59376984 84.06424896 -1.62567139 85.46881104 C-1.86595567 96.10318634 -2.09423726 106.73761768 -2.125 117.375 C-2.12959229 118.22795654 -2.13418457 119.08091309 -2.13891602 119.9597168 C-2.1296323 123.47898809 -1.94230077 126.61351889 -1 130 C3.52238628 129.51174237 5.48779808 127.96989181 8.6875 124.8125 C17.38558396 116.72930268 26.65393391 112.40752366 38 109 C38.62656494 108.81163574 39.25312988 108.62327148 39.89868164 108.42919922 C47.26328716 106.49264803 54.74412214 106.6032186 62.3125 106.625 C63.02042694 106.62554382 63.72835388 106.62608765 64.45773315 106.62664795 C95.134041 106.73484446 120.91824449 116.47814452 142.73876953 138.43603516 C147.08412853 142.93381338 150.69099356 147.68752563 154 153 C154.57105469 153.86496094 155.14210938 154.72992188 155.73046875 155.62109375 C175.09329295 186.43918701 178.8656358 229.80957858 170.96484375 264.73828125 C166.02011432 285.23941671 157.89697093 303.01043499 144 319 C143.14345208 320.08145156 142.28881802 321.16442668 141.4375 322.25 C125.36483939 340.38325812 102.61787493 350.53664255 79 354 C52.62651087 355.4005845 26.79559786 354.50421416 5.796875 336.4453125 C3.95490848 334.96373073 2.14531589 333.97773246 0 333 C-0.38671875 334.20398438 -0.7734375 335.40796875 -1.171875 336.6484375 C-1.69713548 338.22421894 -2.22322021 339.79972581 -2.75 341.375 C-3.12898437 342.56609375 -3.12898437 342.56609375 -3.515625 343.78125 C-3.90234375 344.92207031 -3.90234375 344.92207031 -4.296875 346.0859375 C-4.52729492 346.7876709 -4.75771484 347.4894043 -4.99511719 348.21240234 C-6.34643801 350.61628258 -7.42948924 351.00379452 -10 352 C-13.01304626 352.29193115 -13.01304626 352.29193115 -16.58178711 352.35058594 C-17.23448578 352.36384415 -17.88718445 352.37710236 -18.55966187 352.39076233 C-20.71551231 352.43179859 -22.87126077 352.45858987 -25.02734375 352.484375 C-26.53748914 352.5081973 -28.0476261 352.53255902 -29.55775452 352.55743408 C-32.72765744 352.60735031 -35.897558 352.65011595 -39.06762695 352.68798828 C-43.09542691 352.73675075 -47.12266429 352.80390421 -51.15009212 352.87673569 C-54.2738965 352.93096214 -57.39778523 352.97466832 -60.52179146 353.01544952 C-62.00432826 353.03610496 -63.48682422 353.05999049 -64.96925163 353.08739471 C-74.04262102 353.24862201 -83.14693577 353.26340247 -92 351 C-94 349 -94 349 -94.22827148 346.83349609 C-94.11012463 339.73306396 -93.66832888 332.69958674 -93.0625 325.625 C-89.71734158 283.97880205 -89.79289115 242.12970888 -89.8125 200.375 C-89.81261959 199.24121288 -89.81273918 198.10742577 -89.8128624 196.93928146 C-89.82040396 140.24700151 -90.89818723 83.59991263 -95.7421875 27.08203125 C-95.84982422 25.79449951 -95.95746094 24.50696777 -96.06835938 23.18041992 C-96.2644331 20.90699509 -96.47524718 18.63476254 -96.70507812 16.36450195 C-96.78951172 15.41148193 -96.87394531 14.45846191 -96.9609375 13.4765625 C-97.04134277 12.67299316 -97.12174805 11.86942383 -97.20458984 11.04150391 C-97 9 -97 9 -95.98754883 7.28613281 C-92.95434331 5.32336084 -89.75371891 5.23773743 -86.23828125 4.9453125 C-85.05230095 4.83088303 -85.05230095 4.83088303 -83.84236145 4.71414185 C-82.12627342 4.55033273 -80.40959244 4.39264655 -78.69244385 4.24035645 C-75.9891276 3.99902941 -73.28837872 3.73783761 -70.58740234 3.47167969 C-64.79026971 2.90631386 -58.98994912 2.38266809 -53.1875 1.875 C-52.1663913 1.78528931 -51.14528259 1.69557861 -50.0932312 1.60314941 C-33.34564574 0.15436633 -16.81018097 -0.55684126 0 0 Z M7 196 C-2.38184949 209.15941838 -5.22956128 223.12278557 -3.375 239.125 C-1.01205949 252.9319857 4.99285664 263.19330558 16.4375 271.4375 C27.64250718 278.19881202 40.8903193 278.67077113 53.578125 276.34375 C64.18934433 273.18759246 72.20589642 266.35416225 78 257 C82.55421829 247.73818301 84.19241013 240.02750314 84.25 229.8125 C84.270625 228.91724609 84.29125 228.02199219 84.3125 227.09960938 C84.38655207 214.27934393 79.59928994 202.60720436 70.875 193.1875 C60.30903874 183.19558078 48.988614 181.41994579 35.13671875 181.66796875 C23.5168374 182.18502262 14.52319287 187.24718159 7 196 Z " fill="#0D8" transform="translate(783,215)"/>
<path d="M0 0 C2 2 2 2 2.02709961 5.29443359 C1.93415713 6.70488006 1.82918102 8.11456401 1.71484375 9.5234375 C1.66142319 10.28296722 1.60800262 11.04249695 1.55296326 11.82504272 C1.38091756 14.21780564 1.19272615 16.60882047 1 19 C0.94322083 19.71998169 0.88644165 20.43996338 0.82794189 21.1817627 C0.54302035 24.77898816 0.24726845 28.37523612 -0.05322266 31.97119141 C-1.42755206 48.50944025 -2.43034191 65.04439392 -3.125 81.625 C-3.16333954 82.52357727 -3.20167908 83.42215454 -3.24118042 84.34796143 C-3.5305469 91.23083433 -3.77006949 98.11491657 -4 105 C-4.04343536 106.23464996 -4.08687073 107.46929993 -4.13162231 108.74136353 C-5.07638173 135.8590266 -5.18767384 162.97162243 -5.18530273 190.10375977 C-5.18522197 194.96252199 -5.19210569 199.82118893 -5.20581055 204.67993164 C-5.27946847 231.25963582 -5.07729193 257.799586 -4.08984375 284.36328125 C-4.02902146 286.02864835 -4.02902146 286.02864835 -3.96697044 287.72765923 C-3.35657004 304.03506897 -2.27024967 320.25325164 -0.5859375 336.484375 C-0.03392012 342.01094899 0.15909455 347.44936795 0 353 C-4.2333978 354.59056078 -7.79117376 355.26614189 -12.30566406 355.3347168 C-14.14852997 355.36936287 -14.14852997 355.36936287 -16.02862549 355.40470886 C-17.34433533 355.41939713 -18.66004517 355.43408539 -20.015625 355.44921875 C-21.39557928 355.47051025 -22.77552326 355.49247927 -24.15545654 355.51509094 C-27.04353055 355.56037638 -29.93159426 355.59918614 -32.81982422 355.63305664 C-36.49576427 355.67643535 -40.17134061 355.73321612 -43.8470192 355.7946043 C-46.69708502 355.84114155 -49.5472115 355.88177344 -52.39739227 355.92057228 C-54.40349502 355.94852716 -56.40954369 355.98028079 -58.41558838 356.01213074 C-79.13207077 356.23980933 -79.13207077 356.23980933 -84 352 C-84.87832244 349.31299181 -85.14685273 346.77510555 -85.24609375 343.9609375 C-85.29540039 342.84332031 -85.29540039 342.84332031 -85.34570312 341.703125 C-85.40720277 340.1433894 -85.46445373 338.58348081 -85.51757812 337.0234375 C-85.54805111 332.54076503 -85.54805111 332.54076503 -88 329 C-88.64324219 329.6290625 -89.28648437 330.258125 -89.94921875 330.90625 C-108.84891962 348.80839177 -130.9331144 356.68218223 -156.875 356.375 C-157.5772168 356.37034729 -158.27943359 356.36569458 -159.00292969 356.36090088 C-184.05912069 356.16630768 -207.620315 349.58621689 -227 333 C-228.18142578 332.03513672 -228.18142578 332.03513672 -229.38671875 331.05078125 C-248.48021353 314.83479903 -260.86090286 291.29755963 -266 267 C-266.15098145 266.2869873 -266.30196289 265.57397461 -266.45751953 264.83935547 C-274.13341438 226.69173132 -268.39533491 186.23040482 -246.84765625 153.58984375 C-243.46887091 148.85382962 -239.82046338 144.38492824 -236 140 C-235.45988281 139.37480469 -234.91976563 138.74960937 -234.36328125 138.10546875 C-218.13757619 120.65363988 -193.2203098 110.06183722 -169.62939453 108.82299805 C-145.24229042 108.39560221 -123.30486986 108.77632429 -104 126 C-101.86587433 128.09668487 -99.77356252 130.21665559 -97.7265625 132.3984375 C-95.9859552 134.23430863 -95.9859552 134.23430863 -93 135 C-93.01252808 134.36093719 -93.02505615 133.72187439 -93.03796387 133.06344604 C-93.62479802 102.85712265 -94.12225487 72.6476415 -94.23217773 42.43536377 C-94.24253568 39.6870249 -94.25997524 36.93887033 -94.28344727 34.19061279 C-94.31566782 30.35232244 -94.32331383 26.51420919 -94.328125 22.67578125 C-94.34658478 20.95976967 -94.34658478 20.95976967 -94.36541748 19.20909119 C-94.36245667 18.16596268 -94.35949585 17.12283417 -94.35644531 16.0480957 C-94.36191376 14.68646049 -94.36191376 14.68646049 -94.36749268 13.2973175 C-94 11 -94 11 -92.71376038 9.21803284 C-89.69285084 7.07096078 -86.00842878 7.37543758 -82.41796875 7.2265625 C-80.61758545 7.1255664 -78.8172115 7.02440342 -77.0168457 6.9230957 C-76.06621246 6.87480621 -75.11557922 6.82651672 -74.13613892 6.77676392 C-56.31472619 5.85951109 -38.72980245 4.19330642 -21.07299805 1.62548828 C-6.467252 -0.48769441 -6.467252 -0.48769441 0 0 Z M-167.9375 197.25390625 C-177.30557916 209.83216771 -181.18275581 224.22798498 -179.53125 239.8046875 C-177.8987941 249.62342963 -174.28220909 257.31431867 -168 265 C-167.47664063 265.64839844 -166.95328125 266.29679687 -166.4140625 266.96484375 C-161.08783348 272.90164049 -152.18146995 278.36530267 -144.12158203 279.19287109 C-130.54552478 279.71032303 -119.41791399 278.98951107 -108.625 269.75 C-97.4766976 258.81887232 -91.11961827 247.45042294 -90.6875 231.6875 C-90.97904862 217.75795475 -95.75681561 206.16117594 -105.4375 196.0625 C-114.44140506 187.63752623 -123.97953769 183.40143762 -136.375 183.5625 C-137.20499512 183.57079834 -138.03499023 183.57909668 -138.89013672 183.58764648 C-150.77417014 183.91369739 -160.12485799 188.1654094 -167.9375 197.25390625 Z " fill="#0D8" transform="translate(2039,213)"/>
<path d="M0 0 C2 2 2 2 2.02709961 5.29443359 C1.93415713 6.70488006 1.82918102 8.11456401 1.71484375 9.5234375 C1.66142319 10.28296722 1.60800262 11.04249695 1.55296326 11.82504272 C1.38091756 14.21780564 1.19272615 16.60882047 1 19 C0.94322083 19.71998169 0.88644165 20.43996338 0.82794189 21.1817627 C0.54302035 24.77898816 0.24726845 28.37523612 -0.05322266 31.97119141 C-1.42755206 48.50944025 -2.43034191 65.04439392 -3.125 81.625 C-3.16333954 82.52357727 -3.20167908 83.42215454 -3.24118042 84.34796143 C-3.5305469 91.23083433 -3.77006949 98.11491657 -4 105 C-4.04343536 106.23464996 -4.08687073 107.46929993 -4.13162231 108.74136353 C-5.07638173 135.8590266 -5.18767384 162.97162243 -5.18530273 190.10375977 C-5.18522197 194.96252199 -5.19210569 199.82118893 -5.20581055 204.67993164 C-5.27946847 231.25963582 -5.07729193 257.799586 -4.08984375 284.36328125 C-4.02902146 286.02864835 -4.02902146 286.02864835 -3.96697044 287.72765923 C-3.35657004 304.03506897 -2.27024967 320.25325164 -0.5859375 336.484375 C-0.03392012 342.01094899 0.15909455 347.44936795 0 353 C-4.2333978 354.59056078 -7.79117376 355.26614189 -12.30566406 355.3347168 C-14.14852997 355.36936287 -14.14852997 355.36936287 -16.02862549 355.40470886 C-17.34433533 355.41939713 -18.66004517 355.43408539 -20.015625 355.44921875 C-21.39557928 355.47051025 -22.77552326 355.49247927 -24.15545654 355.51509094 C-27.04353055 355.56037638 -29.93159426 355.59918614 -32.81982422 355.63305664 C-36.49576427 355.67643535 -40.17134061 355.73321612 -43.8470192 355.7946043 C-46.69708502 355.84114155 -49.5472115 355.88177344 -52.39739227 355.92057228 C-54.40349502 355.94852716 -56.40954369 355.98028079 -58.41558838 356.01213074 C-79.13207077 356.23980933 -79.13207077 356.23980933 -84 352 C-84.87832244 349.31299181 -85.14685273 346.77510555 -85.24609375 343.9609375 C-85.29540039 342.84332031 -85.29540039 342.84332031 -85.34570312 341.703125 C-85.40720277 340.1433894 -85.46445373 338.58348081 -85.51757812 337.0234375 C-85.54805111 332.54076503 -85.54805111 332.54076503 -88 329 C-88.64324219 329.6290625 -89.28648437 330.258125 -89.94921875 330.90625 C-108.84891962 348.80839177 -130.9331144 356.68218223 -156.875 356.375 C-157.5772168 356.37034729 -158.27943359 356.36569458 -159.00292969 356.36090088 C-184.05912069 356.16630768 -207.620315 349.58621689 -227 333 C-228.18142578 332.03513672 -228.18142578 332.03513672 -229.38671875 331.05078125 C-248.48021353 314.83479903 -260.86090286 291.29755963 -266 267 C-266.15098145 266.2869873 -266.30196289 265.57397461 -266.45751953 264.83935547 C-274.13341438 226.69173132 -268.39533491 186.23040482 -246.84765625 153.58984375 C-243.46887091 148.85382962 -239.82046338 144.38492824 -236 140 C-235.45988281 139.37480469 -234.91976563 138.74960937 -234.36328125 138.10546875 C-218.13757619 120.65363988 -193.2203098 110.06183722 -169.62939453 108.82299805 C-145.24229042 108.39560221 -123.30486986 108.77632429 -104 126 C-101.86587433 128.09668487 -99.77356252 130.21665559 -97.7265625 132.3984375 C-95.9859552 134.23430863 -95.9859552 134.23430863 -93 135 C-93.01252808 134.36093719 -93.02505615 133.72187439 -93.03796387 133.06344604 C-93.62479802 102.85712265 -94.12225487 72.6476415 -94.23217773 42.43536377 C-94.24253568 39.6870249 -94.25997524 36.93887033 -94.28344727 34.19061279 C-94.31566782 30.35232244 -94.32331383 26.51420919 -94.328125 22.67578125 C-94.34658478 20.95976967 -94.34658478 20.95976967 -94.36541748 19.20909119 C-94.36245667 18.16596268 -94.35949585 17.12283417 -94.35644531 16.0480957 C-94.36191376 14.68646049 -94.36191376 14.68646049 -94.36749268 13.2973175 C-94 11 -94 11 -92.71376038 9.21803284 C-89.69285084 7.07096078 -86.00842878 7.37543758 -82.41796875 7.2265625 C-80.61758545 7.1255664 -78.8172115 7.02440342 -77.0168457 6.9230957 C-76.06621246 6.87480621 -75.11557922 6.82651672 -74.13613892 6.77676392 C-56.31472619 5.85951109 -38.72980245 4.19330642 -21.07299805 1.62548828 C-6.467252 -0.48769441 -6.467252 -0.48769441 0 0 Z M-167.9375 197.25390625 C-177.30557916 209.83216771 -181.18275581 224.22798498 -179.53125 239.8046875 C-177.8987941 249.62342963 -174.28220909 257.31431867 -168 265 C-167.47664063 265.64839844 -166.95328125 266.29679687 -166.4140625 266.96484375 C-161.08783348 272.90164049 -152.18146995 278.36530267 -144.12158203 279.19287109 C-130.54552478 279.71032303 -119.41791399 278.98951107 -108.625 269.75 C-97.4766976 258.81887232 -91.11961827 247.45042294 -90.6875 231.6875 C-90.97904862 217.75795475 -95.75681561 206.16117594 -105.4375 196.0625 C-114.44140506 187.63752623 -123.97953769 183.40143762 -136.375 183.5625 C-137.20499512 183.57079834 -138.03499023 183.57909668 -138.89013672 183.58764648 C-150.77417014 183.91369739 -160.12485799 188.1654094 -167.9375 197.25390625 Z " fill="#0D8" transform="translate(1494,213)"/>
<path d="M0 0 C0.71623535 0.19335938 1.4324707 0.38671875 2.17041016 0.5859375 C27.2239037 7.61545203 47.09353917 22.24573348 64.8125 40.9375 C66.05966797 42.25041016 66.05966797 42.25041016 67.33203125 43.58984375 C69 46 69 46 68.83786488 47.89236736 C67.76516144 50.59073177 66.31083706 52.0726875 64.26213074 54.13227844 C63.45877792 54.94698105 62.65542511 55.76168365 61.82772827 56.60107422 C60.93993683 57.48593506 60.05214539 58.3707959 59.13745117 59.2824707 C58.19738286 60.22987902 57.2579398 61.17790811 56.31907654 62.12651062 C53.76831546 64.69949815 51.20798146 67.26275199 48.64513946 69.82370019 C46.50770602 71.96101403 44.37462908 74.10265016 42.24142915 76.24418801 C37.21088683 81.29396668 32.1722077 86.33552572 27.12866211 91.37231445 C21.9206034 96.57372445 16.72749846 101.78973458 11.54132861 107.01296169 C7.09078712 111.49414962 2.63068762 115.96566544 -1.83715266 120.42960614 C-4.50678615 123.09716773 -7.17246986 125.76840366 -9.82883644 128.44918251 C-12.78843313 131.43507643 -15.76766189 134.40058535 -18.74926758 137.36450195 C-19.63098633 138.25948395 -20.51270508 139.15446594 -21.42114258 140.0765686 C-22.63886101 141.27747383 -22.63886101 141.27747383 -23.88117981 142.50263977 C-24.58413083 143.2063033 -25.28708185 143.90996683 -26.01133442 144.6349535 C-28 146 -28 146 -30.09800243 145.8050108 C-43.88838109 139.96830317 -51.70709337 129.45741132 -59 117 C-59.33 116.01 -59.66 115.02 -60 114 C-49.44 103.44 -38.88 92.88 -28 82 C-37.36916693 76.14427067 -43.31963858 73.69672717 -54 76 C-62.61714345 78.76190495 -68.84324614 85.29311971 -72.9375 93.1875 C-77.76910257 103.32567624 -76.52874913 113.61349313 -73 124 C-69.5361043 131.89897711 -64.6469529 138.52883701 -59 145 C-58.48050781 145.61488281 -57.96101563 146.22976563 -57.42578125 146.86328125 C-48.46207206 156.68497772 -34.09503297 165.04145721 -20.75 166.30859375 C-10.69984428 166.65406785 -3.00266947 164.98403465 4.93359375 158.39453125 C12.3332218 150.62584445 13.71939176 140.22278645 15 130 C24.14461615 129.80352464 33.1168904 130.40896891 42.21484375 131.27734375 C43.6429933 131.4098744 45.0711812 131.54199225 46.49940491 131.67372131 C49.46713678 131.94859344 52.43449589 132.22709813 55.40161133 132.50854492 C59.19597635 132.86834834 62.99097369 133.22087396 66.7862463 133.57096004 C69.72471783 133.84246979 72.66292265 134.11677673 75.60104561 134.39203072 C77.00077049 134.52301949 78.40055407 134.65338272 79.80039787 134.78309441 C81.75251887 134.96460753 83.70427161 135.15006788 85.65600586 135.33569336 C87.31713661 135.49224648 87.31713661 135.49224648 89.01182556 135.65196228 C91.71983419 135.96736861 94.33768327 136.41971905 97 137 C93.1190765 173.02887193 75.9179532 203.30250682 48.12890625 226.56640625 C44.24082302 229.62072108 40.18188311 232.36660847 36 235 C35.43603516 235.36029297 34.87207031 235.72058594 34.29101562 236.09179688 C6.76398855 253.44920391 -28.03933284 258.32132398 -59.70751953 251.54345703 C-93.06009394 243.6368723 -122.25970191 222.1094497 -140.546875 193.14453125 C-158.89873585 162.83770223 -163.22787518 128.23241636 -155.51220703 93.82470703 C-150.07794157 72.01978213 -138.45949696 53.09101236 -123 37 C-122.10796875 36.04480469 -121.2159375 35.08960938 -120.296875 34.10546875 C-90.06129191 2.28773147 -42.74112737 -11.6422908 0 0 Z " fill="#0D8" transform="translate(1124,317)"/>
<path d="M0 0 C1.12019531 0.350625 2.24039062 0.70125 3.39453125 1.0625 C18.11390129 6.18847167 30.66108212 14.45270303 42 25 C42.88300781 25.80179687 43.76601562 26.60359375 44.67578125 27.4296875 C66.68288212 48.30734152 78.37505002 77.42294545 79.28125 107.48413086 C79.42486614 117.61019089 78.89831644 127.68379782 71.890625 135.59765625 C66.79116904 139.38010395 61.31902825 140.50083291 55.11328125 141.02734375 C54.35560455 141.10099152 53.59792786 141.17463928 52.81729126 141.2505188 C50.31660891 141.49068912 47.81474638 141.71426411 45.3125 141.9375 C43.53254719 142.10447019 41.75268202 142.27237705 39.97290039 142.44116211 C36.22440845 142.79429403 32.47532875 143.13990347 28.72558594 143.47949219 C24.04706225 143.9032218 19.36979498 144.33913449 14.69287109 144.78013611 C-3.49806335 146.4944264 -21.69741479 148.11117684 -39.912323 149.55026245 C-41.56521509 149.68100363 -43.21799213 149.81320959 -44.87063599 149.947052 C-54.2682547 150.70388679 -63.56229191 151.18629098 -73 151 C-69.69138981 160.95671886 -64.95555804 168.02970691 -55.6875 173.3125 C-37.45048435 182.44369003 -16.31800169 184.18016804 3.31640625 178.31640625 C14.26608435 174.40331874 24.10306768 169.76573123 33.68554688 163.11279297 C36.31985258 161.34274113 38.3829133 160.05227966 41.58203125 159.78125 C48.52599029 163.28127459 52.22719696 171.3545146 55.875 177.875 C56.39167236 178.79321533 56.90834473 179.71143066 57.44067383 180.6574707 C72.45842308 207.64274415 72.45842308 207.64274415 71 216 C69.39033646 218.81691119 68.38924899 219.96888255 66 222 C65.24332031 222.68707031 64.48664063 223.37414062 63.70703125 224.08203125 C50.87373446 235.20927676 35.95057507 242.27056564 19.625 246.6875 C18.88290283 246.89012451 18.14080566 247.09274902 17.3762207 247.30151367 C4.42682788 250.63302538 -8.28730641 251.34864201 -21.58447266 251.31567383 C-24.23251864 251.31252081 -26.87943532 251.33604215 -29.52734375 251.36132812 C-62.0183916 251.48329393 -93.54103451 242.01938501 -118 220 C-118.97195313 219.12730469 -119.94390625 218.25460937 -120.9453125 217.35546875 C-135.91895922 203.11173517 -146.27920992 184.80899911 -152 165 C-152.19609863 164.32630371 -152.39219727 163.65260742 -152.59423828 162.95849609 C-156.06318488 150.37895548 -156.39497721 137.77104309 -156.4375 124.8125 C-156.4436734 124.01642334 -156.4498468 123.22034668 -156.45620728 122.40014648 C-156.64001732 85.50134812 -144.24901163 52.87268109 -118.37890625 26.30859375 C-88.31754103 -2.23406951 -39.57293696 -13.00559226 0 0 Z M-68 71 C-74.6210176 79.19388377 -78.77584049 89.29002806 -78 100 C-77.25113868 102.4531811 -77.25113868 102.4531811 -75 104 C-71.85582993 104.64507665 -68.76142429 104.56253952 -65.5625 104.5 C-64.58345703 104.49081543 -63.60441406 104.48163086 -62.59570312 104.47216797 C-52.68247236 104.24495215 -42.84842027 103.21464733 -33 102.125 C-32.20933136 102.03822998 -31.41866272 101.95145996 -30.60403442 101.86206055 C-28.31822868 101.60697809 -26.03398145 101.3412063 -23.75 101.0703125 C-23.07158554 100.99309967 -22.39317108 100.91588684 -21.69419861 100.83633423 C-14.35571912 100.16801202 -14.35571912 100.16801202 -8 97 C-7.33156792 88.57775574 -8.87520493 82.05173988 -14.09375 75.28515625 C-21.07472311 67.36175177 -27.96916155 60.71816532 -38.82421875 59.609375 C-51.06021863 59.09586513 -59.54141443 61.95252556 -68 71 Z " fill="#0D8" transform="translate(1677,322)"/>
<path d="M0 0 C0.85496158 0.00441133 1.70992315 0.00882265 2.59079266 0.01336765 C3.5205935 0.03470233 4.45039434 0.05603701 5.40837097 0.07801819 C6.38885564 0.08968741 7.36934031 0.10135664 8.37953663 0.11337948 C17.4731585 0.25097163 26.5573357 0.64298589 35.64245605 1.04284668 C63.756604 2.26768084 91.83050982 2.48524712 119.96769714 2.41810608 C121.91624323 2.4139384 123.86478932 2.40977403 125.81333542 2.40561295 C141.79149339 2.36944963 157.76956236 2.30898852 173.74760437 2.23884583 C184.84181789 2.1903236 195.93596567 2.14836725 207.0302698 2.12733752 C212.68235908 2.11588917 218.3341584 2.09064418 223.9861418 2.05459011 C227.46512752 2.03543495 230.94405455 2.02872352 234.42308807 2.02552605 C236.03200377 2.02150651 237.64091612 2.01231383 239.24976921 1.99756241 C241.44342958 1.97816286 243.6363527 1.97727339 245.83007812 1.98095703 C247.66805576 1.97291251 247.66805576 1.97291251 249.54316425 1.96470547 C253.09896956 2.36648845 254.93855256 3.16008448 257.76066589 5.32826233 C259.19083487 7.73222522 260.36834121 9.98423805 261.51066589 12.51576233 C262.20149189 13.96390033 262.89560513 15.41047393 263.59269714 16.85560608 C263.947995 17.59665588 264.30329285 18.33770569 264.6693573 19.10121155 C273.49846623 37.11891439 285.24276619 54.28831973 301.20207214 66.73060608 C303.35265165 68.93508482 304.06021078 70.29024188 304.76066589 73.32826233 C304.44257516 76.62718922 303.71274777 79.79480945 302.94816589 83.01576233 C302.75674011 83.88265686 302.56531433 84.74955139 302.36808777 85.64271545 C300.94937037 91.95085338 300.94937037 91.95085338 299.76066589 94.32826233 C298.87587964 94.31545668 297.99109339 94.30265102 297.07949543 94.28945732 C251.07587775 93.63184705 205.07981033 93.23677294 159.07117987 93.32928944 C155.64572697 93.33607811 152.22027352 93.34213137 148.79481888 93.34796906 C127.88357241 93.3840207 106.97236849 93.4308899 86.061203 93.49964905 C75.55068591 93.53410893 65.0402003 93.5579294 54.52963287 93.56985748 C47.97436743 93.57788807 41.41932189 93.59892817 34.86412752 93.63006234 C30.84650694 93.64601628 26.8289495 93.64948262 22.81130028 93.64929199 C20.95403119 93.6517161 19.09676064 93.65930452 17.23953629 93.6724205 C14.71041731 93.68955113 12.1819561 93.68824301 9.65280151 93.68229675 C8.91943925 93.6917174 8.18607699 93.70113804 7.43049163 93.71084416 C3.02539898 93.67609351 0.25104423 93.0512003 -3.23933411 90.32826233 C-6.84120173 85.30424281 -7.82439051 81.42885266 -7.74104309 75.23744202 C-7.74644608 74.46095306 -7.75184906 73.68446411 -7.75741577 72.88444519 C-7.7698392 70.33927832 -7.75346179 67.79525639 -7.73542786 65.25013733 C-7.73558293 63.47370851 -7.73707331 61.69727934 -7.73983765 59.92085266 C-7.74121855 56.2088464 -7.72871051 52.497228 -7.70588684 48.78529358 C-7.67741997 44.02469357 -7.68026601 39.26473355 -7.69297695 34.50408554 C-7.69992424 30.84096288 -7.69215715 27.17798866 -7.67971992 23.51488495 C-7.675202 21.75898558 -7.6748716 20.00307031 -7.67878532 18.24716949 C-7.68169038 15.79828039 -7.66522831 13.35028123 -7.64338684 10.90150452 C-7.64788849 10.17522858 -7.65239014 9.44895264 -7.6570282 8.70066833 C-7.58413281 3.79069856 -7.58413281 3.79069856 -5.98006248 1.63935566 C-3.81057397 0.00532593 -2.69562258 -0.03353806 0 0 Z " fill="#0D8" transform="translate(878.2393341064453,213.67173767089844)"/>
<path d="M0 0 C0.77730469 0.350625 1.55460937 0.70125 2.35546875 1.0625 C15.29557324 7.47687193 25.74739463 19.64722297 31 33 C36.22462563 48.90468363 35.35024024 65.79794732 28.5 81.0625 C20.57194214 95.95226041 7.51665312 105.50281056 -8.109375 111.1171875 C-20.52714642 113.93487459 -36.54882868 113.8532261 -48 108 C-49.27617188 107.36384766 -49.27617188 107.36384766 -50.578125 106.71484375 C-64.28978635 99.16501794 -74.43692454 87.36926386 -79.5 72.5625 C-83.7358485 56.55176989 -82.85907231 39.71826264 -75 25 C-66.42368418 10.94171839 -55.0985405 2.42232715 -39.8046875 -3.16796875 C-27.28123349 -5.90667071 -11.57383187 -5.75850227 0 0 Z " fill="#0D8" transform="translate(1274,192)"/>
<path d="M0 0 C1 1 1 1 1.09765625 4.16015625 C1.08605469 5.44792969 1.07445312 6.73570312 1.0625 8.0625 C1.05347656 9.35285156 1.04445313 10.64320313 1.03515625 11.97265625 C1.02355469 12.97167969 1.01195312 13.97070312 1 15 C2.39412109 13.75283203 2.39412109 13.75283203 3.81640625 12.48046875 C5.06469642 11.38234882 6.31341739 10.28471846 7.5625 9.1875 C8.17158203 8.64029297 8.78066406 8.09308594 9.40820312 7.52929688 C16.3089325 1.50485059 22.37215462 -0.51670477 31.4375 -0.4375 C32.24509766 -0.45748047 33.05269531 -0.47746094 33.88476562 -0.49804688 C40.65210741 -0.49259374 45.86542972 1.24724378 50.98828125 5.74609375 C51.42527344 6.30425781 51.86226562 6.86242187 52.3125 7.4375 C52.76238281 7.99308594 53.21226563 8.54867187 53.67578125 9.12109375 C55.24334078 11.34527113 56.62660435 13.65193648 58 16 C59.70862395 14.60452243 61.41688442 13.2085998 63.125 11.8125 C64.12917969 10.99265625 65.13335938 10.1728125 66.16796875 9.328125 C68.27806261 7.59348232 70.36462715 5.84077852 72.4375 4.0625 C79.78570184 -1.85190636 88.98369464 -0.81675945 98 0 C103.92516072 1.39282685 108.19296929 4.21401854 112 9 C115.52311124 14.98331773 117.10614421 19.94558921 117.18945312 26.91430664 C117.21452942 28.70119652 117.21452942 28.70119652 117.2401123 30.52418518 C117.26047546 32.44774086 117.26047546 32.44774086 117.28125 34.41015625 C117.30937334 36.42512123 117.3375019 38.44008615 117.36594391 40.45504665 C117.42444495 44.70777895 117.47453241 48.96061857 117.52606201 53.21343994 C117.56884491 56.71854579 117.61346293 60.2236045 117.66296387 63.72862244 C117.69967926 66.35727754 117.73210291 68.98599668 117.7598877 71.61476135 C117.78496399 73.39692299 117.78496399 73.39692299 117.81054688 75.21508789 C117.82307495 76.26225479 117.83560303 77.30942169 117.84851074 78.38832092 C117.89264084 81.11252506 117.89264084 81.11252506 119 84 C121.43387753 85.21693876 123.41838846 85.31959896 126.125 85.5625 C128.538125 85.7790625 128.538125 85.7790625 131 86 C131 89.3 131 92.6 131 96 C125.17928378 96.02464638 119.35859766 96.0428343 113.5378418 96.05493164 C111.55606559 96.05997267 109.57429311 96.06680538 107.5925293 96.07543945 C104.75047891 96.08751515 101.90847753 96.09323045 99.06640625 96.09765625 C97.72891075 96.10539818 97.72891075 96.10539818 96.36439514 96.11329651 C94.24259399 96.11349177 92.1208922 96.0621003 90 96 C89.67 95.67 89.34 95.34 89 95 C89.0667727 92.44442657 89.19622819 89.92339623 89.375 87.375 C89.42390381 86.61968994 89.47280762 85.86437988 89.52319336 85.08618164 C89.677237 82.72376842 89.83843932 80.36190972 90 78 C90.09815088 76.51175129 90.19582546 75.02347107 90.29296875 73.53515625 C90.5231762 70.02305898 90.75977132 66.51142779 91 63 C90.01 62.67 89.02 62.34 88 62 C88.99 62 89.98 62 91 62 C92.24896094 40.6741079 92.24896094 40.6741079 85.0625 21.4375 C79.16391932 18.66877846 72.58425267 19.12319999 66.5 21.1875 C62.43938122 24.13144861 60.30437642 26.29907293 59.40234375 31.33984375 C58.75947 37.33431768 58.85189359 43.35355167 58.875 49.375 C58.87765869 50.60911621 58.88031738 51.84323242 58.88305664 53.11474609 C58.92003123 60.29343258 59.04898981 67.45631198 59.4375 74.625 C59.49623291 75.72400635 59.49623291 75.72400635 59.55615234 76.84521484 C59.76407637 80.54682512 59.76407637 80.54682512 61 84 C63.80980673 84.69227032 63.80980673 84.69227032 67.0625 85.125 C68.16722656 85.29257812 69.27195312 85.46015625 70.41015625 85.6328125 C71.26480469 85.75398437 72.11945313 85.87515625 73 86 C73 89.3 73 92.6 73 96 C55.51 96 38.02 96 20 96 C20 92.7 20 89.4 20 86 C20.71027344 85.87882813 21.42054687 85.75765625 22.15234375 85.6328125 C23.07144531 85.46523438 23.99054688 85.29765625 24.9375 85.125 C25.85402344 84.96257812 26.77054688 84.80015625 27.71484375 84.6328125 C28.84599609 84.31957031 28.84599609 84.31957031 30 84 C33.61475538 76.77048925 32.16156369 65.62863748 32.125 57.6875 C32.12089111 56.60098145 32.11678223 55.51446289 32.11254883 54.39501953 C32.82914303 38.06134676 32.82914303 38.06134676 28 23 C22.63391745 19.05738088 17.42722789 19.20748274 11 20 C6.96345889 21.9828623 4.3499944 24.16579861 2 28 C0.97100219 31.08699343 0.91057136 33.07056807 0.97827148 36.29760742 C0.99836777 37.37850143 1.01846405 38.45939545 1.03916931 39.57304382 C1.06620438 40.73874405 1.09323944 41.90444427 1.12109375 43.10546875 C1.14470474 44.29981033 1.16831573 45.49415192 1.19264221 46.72468567 C1.26931911 50.54574348 1.35332654 54.36660068 1.4375 58.1875 C1.49071662 60.77538075 1.54345705 63.36327135 1.59570312 65.95117188 C1.72493983 72.30090869 1.86075188 78.65047516 2 85 C5.96 85.33 9.92 85.66 14 86 C14 89.3 14 92.6 14 96 C-3.82 96 -21.64 96 -40 96 C-40 92.7 -40 89.4 -40 86 C-33.565 85.505 -33.565 85.505 -27 85 C-25.49114736 66.13934206 -25.6230278 47.20888405 -26.4375 28.3125 C-26.47665527 27.38034668 -26.51581055 26.44819336 -26.55615234 25.48779297 C-26.37250593 21.41510287 -26.37250593 21.41510287 -28 18 C-30.01594582 17.76572222 -32.038474 17.58663876 -34.0625 17.4375 C-35.16722656 17.35371094 -36.27195312 17.26992188 -37.41015625 17.18359375 C-38.26480469 17.12300781 -39.11945313 17.06242188 -40 17 C-40 13.7 -40 10.4 -40 7 C-38.64648438 6.82984375 -37.29296875 6.6596875 -35.8984375 6.484375 C-26.2621537 5.22049844 -17.07151537 3.79913555 -7.8125 0.76953125 C-5.04550363 0.0124503 -2.85116986 -0.22911186 0 0 Z " fill="#0D8" transform="translate(1308,628)"/>
<path d="M0 0 C0.67771454 0.00204437 1.35542908 0.00408875 2.05368042 0.00619507 C14.97507206 0.0696576 26.1050233 1.35887689 37.6875 7.4375 C36.90199616 17.79374805 35.79992415 28.11247586 34.6875 38.4375 C31.3875 38.4375 28.0875 38.4375 24.6875 38.4375 C24.63142578 37.00857422 24.63142578 37.00857422 24.57421875 35.55078125 C24.50847656 34.29652344 24.44273437 33.04226563 24.375 31.75 C24.31699219 30.50863281 24.25898437 29.26726563 24.19921875 27.98828125 C23.66313281 24.26841773 23.01602225 22.35845601 20.6875 19.4375 C18.37384545 17.82397086 18.37384545 17.82397086 15.75 16.6875 C14.46802734 16.07648437 14.46802734 16.07648437 13.16015625 15.453125 C4.45366905 11.87700071 -8.18544928 11.82380754 -17.0625 15 C-22.69668586 17.74909413 -26.06100142 21.76384393 -28.6875 27.375 C-30.05797141 34.09030989 -29.71346816 38.52775272 -26.67578125 44.578125 C-23.35741834 49.10402971 -19.51919744 51.00741331 -14.1875 52.375 C-13.25804565 52.61476563 -13.25804565 52.61476563 -12.30981445 52.859375 C-4.30977348 54.82815343 3.84324257 56.16662007 11.96728516 57.51147461 C22.62474378 59.35576708 32.43161216 61.92392494 39.6875 70.4375 C46.35889111 81.05862018 47.18061444 92.79265271 45.07421875 104.98828125 C41.73010701 117.28930901 34.29869944 126.5157815 23.6875 133.4375 C3.97950123 144.52144057 -20.12446183 144.52624532 -41.48046875 138.625 C-46.93760116 137.00562384 -52.14960567 134.82338299 -57.3125 132.4375 C-57.11333984 131.28701172 -57.11333984 131.28701172 -56.91015625 130.11328125 C-55.18106933 119.24653789 -54.71001161 108.42137343 -54.3125 97.4375 C-51.0125 97.4375 -47.7125 97.4375 -44.3125 97.4375 C-44.22613281 98.67886719 -44.13976562 99.92023438 -44.05078125 101.19921875 C-43.91003592 102.84124756 -43.76804304 104.48316976 -43.625 106.125 C-43.57150391 106.94162109 -43.51800781 107.75824219 -43.46289062 108.59960938 C-43.0658238 112.86376182 -42.7158076 114.93705021 -39.9609375 118.35546875 C-28.06528319 127.7070672 -16.22474824 129.88383846 -1.3125 128.4375 C6.01062291 127.05403849 10.47912315 123.46678756 15.125 117.734375 C18.70127948 112.47724416 19.43734963 106.67434458 18.6875 100.4375 C17.62419603 95.61242314 15.89529917 91.50771607 11.7578125 88.51953125 C3.29286879 84.09540029 -6.63106552 82.98183188 -15.9375 81.4375 C-29.32371997 79.18168601 -40.11137736 77.27325432 -49.3125 66.4375 C-55.93631866 56.01337984 -56.80914755 44.80430076 -54.6640625 32.8125 C-51.48430453 21.28927452 -44.38180961 12.79979763 -34.484375 6.22265625 C-23.98237581 0.37595502 -11.72507925 -0.0889853 0 0 Z " fill="#0D8" transform="translate(841.3125,583.5625)"/>
<path d="M0 0 C17.82 0 35.64 0 54 0 C54 2.97 54 5.94 54 9 C48.06 9.495 48.06 9.495 42 10 C44.45118691 21.58742901 48.81979452 32.2743513 53.1875 43.25 C53.94534398 45.1703037 54.70251107 47.09087468 55.45898438 49.01171875 C57.29819896 53.67759773 59.14653989 58.33976256 61 63 C65.11526008 55.15712353 68.52133235 47.11206558 71.8215332 38.90332031 C72.69218578 36.73834829 73.56923276 34.57605051 74.44726562 32.4140625 C75.0107892 31.02098397 75.57395309 29.62775988 76.13671875 28.234375 C76.39507004 27.59675232 76.65342133 26.95912964 76.91960144 26.30218506 C80.47768695 18.35503454 80.47768695 18.35503454 80 10 C75.05 9.505 75.05 9.505 70 9 C70 6.03 70 3.06 70 0 C82.87 0 95.74 0 109 0 C109 2.97 109 5.94 109 9 C107.68 9 106.36 9 105 9 C101.19760712 9.85724661 100.19584796 10.69486331 98.05834961 14.02514648 C97.42616683 15.31947507 96.81284422 16.62312171 96.21484375 17.93359375 C95.87645981 18.64285507 95.53807587 19.35211639 95.18943787 20.08287048 C94.10413165 22.37901852 93.04806891 24.68663614 92 27 C91.48968231 28.12187714 91.48968231 28.12187714 90.96905518 29.26641846 C88.44628576 34.84179153 86.00048901 40.44966559 83.5625 46.0625 C82.78374347 47.84660041 82.00460152 49.63053263 81.22509766 51.41430664 C79.21287501 56.02178488 77.20568543 60.63143576 75.20013428 65.24182129 C72.8659193 70.60637273 70.52735667 75.96903022 68.18940735 81.33195496 C66.40264063 85.43093119 64.61685799 89.53032613 62.83422852 93.63110352 C61.22366717 97.3350252 59.60845538 101.03688337 57.98937988 104.73709106 C57.30445029 106.30366152 56.62086429 107.87081984 55.93835449 109.43844604 C54.87201384 111.88533095 53.79992064 114.32962406 52.7265625 116.7734375 C52.40468964 117.51468369 52.08281677 118.25592987 51.75119019 119.01963806 C47.00732964 129.77384731 40.21633685 139.82987299 28.95361328 144.41333008 C25.46594707 145.46067598 22.05305506 145.43284888 18.4375 145.375 C17.70853516 145.38660156 16.97957031 145.39820313 16.22851562 145.41015625 C11.42565757 145.38421822 8.21542994 144.51727096 4 142 C4.66355044 135.25390382 5.71865793 128.65551466 7 122 C11.671875 121.75 11.671875 121.75 14.625 124 C19.30192773 126.77151273 23.67055081 126.86109004 29 126 C34.22465993 123.85572915 36.0891196 120.07383406 38.625 115.3125 C39.0065625 114.62994141 39.388125 113.94738281 39.78125 113.24414062 C40.91349879 111.17681051 42.00255461 109.13664716 43 107 C43.45725716 106.17595673 43.45725716 106.17595673 43.92375183 105.33526611 C45.97278307 101.09877237 46.19896032 98.44614895 44.72680664 93.94970703 C43.98194301 92.04150439 43.20774627 90.14458469 42.41015625 88.2578125 C41.99954453 87.22796738 41.5889328 86.19812225 41.1658783 85.1370697 C39.82353198 81.78877959 38.44400983 78.45729924 37.0625 75.125 C36.13131473 72.82826262 35.20228811 70.53064889 34.27539062 68.23217773 C32.41753936 63.6382282 30.54421427 59.05109376 28.65673828 54.46923828 C26.29478916 48.73244127 23.98121778 42.9776317 21.68359375 37.21484375 C20.74890779 34.88596355 19.81210788 32.55795585 18.87350464 30.23065186 C18.29520186 28.79522933 17.71909893 27.3589184 17.14529419 25.92169189 C16.35717456 23.95512256 15.5558077 21.99453176 14.75 20.03515625 C14.09257813 18.41685913 14.09257813 18.41685913 13.421875 16.76586914 C11.94137206 13.88595537 10.4625831 12.08473778 8 10 C5.89061935 9.31883062 5.89061935 9.31883062 3.75 9.25 C2.5125 9.1675 1.275 9.085 0 9 C0 6.03 0 3.06 0 0 Z " fill="#0D8" transform="translate(896,630)"/>
<path d="M0 0 C1.31653564 0.0146228 1.31653564 0.0146228 2.65966797 0.02954102 C13.74785151 0.33235662 20.99948202 3.2831735 29.02734375 11.08203125 C38.12730718 21.30042593 37.41259452 34.55965659 37.125 47.4375 C17.8923443 51.37579729 -2.33540593 50.62241729 -21.875 50.4375 C-17.56767846 66.73422593 -17.56767846 66.73422593 -5.5625 77.9375 C3.03362685 81.83512273 12.79333952 82.2185628 21.73828125 79.23046875 C24.90107036 77.87492513 24.90107036 77.87492513 27.70703125 76.3359375 C30.125 75.4375 30.125 75.4375 32.38671875 76.1640625 C34.125 77.4375 34.125 77.4375 35.125 79.4375 C33.78249617 84.03455858 31.79693828 88.15878239 27.94921875 91.1015625 C12.91288932 98.91949455 -5.48313657 100.66552921 -21.68359375 95.55078125 C-23.84432736 94.62891683 -25.84781567 93.62148051 -27.875 92.4375 C-28.90625 91.839375 -29.9375 91.24125 -31 90.625 C-42.00368313 82.2526324 -46.96916296 72.11815969 -48.875 58.4375 C-49.93072113 45.81168725 -49.70437845 29.98413332 -41.875 19.4375 C-31.38924766 7.69902504 -15.74782145 -0.19597424 0 0 Z M-18.625 18.25 C-22.28107441 24.64813022 -22.20499437 31.06743808 -22.875 38.4375 C-11.985 38.4375 -1.095 38.4375 10.125 38.4375 C10.52339245 25.22725453 10.52339245 25.22725453 4.125 14.9375 C0.20015079 11.88761717 -3.42601241 11.69661183 -8.28515625 11.9765625 C-12.8504105 12.78908136 -15.48675953 14.99967951 -18.625 18.25 Z " fill="#0D8" transform="translate(1218.875,627.5625)"/>
<path d="M0 0 C1.15234131 0.00201416 2.30468262 0.00402832 3.49194336 0.00610352 C23.23924594 0.23924594 23.23924594 0.23924594 27.3125 4.3125 C27.3292793 6.31413877 27.27512541 8.31644864 27.19140625 10.31640625 C27.14306641 11.53134766 27.09472656 12.74628906 27.04492188 13.99804688 C26.98884766 15.27744141 26.93277344 16.55683594 26.875 17.875 C26.82279297 19.15826172 26.77058594 20.44152344 26.71679688 21.76367188 C26.5866304 24.94683391 26.45164999 28.12972004 26.3125 31.3125 C23.3425 31.3125 20.3725 31.3125 17.3125 31.3125 C17.22613281 30.50425781 17.13976563 29.69601562 17.05078125 28.86328125 C16.21076489 22.08355654 16.21076489 22.08355654 13 16.1875 C6.22031107 11.45748447 -0.64398432 11.56362095 -8.6875 12.3125 C-12.58964613 13.48822807 -14.97117662 15.17832132 -17.1875 18.6875 C-17.81835755 21.99950214 -17.71632214 24.08885729 -16.6875 27.3125 C-12.39663213 31.81140994 -7.54015088 32.5905807 -1.6875 33.8125 C0.20240162 34.23963501 2.09172873 34.66932002 3.98046875 35.1015625 C4.89489746 35.30813477 5.80932617 35.51470703 6.75146484 35.72753906 C15.94927459 37.82839246 24.05276726 39.74932676 30.3125 47.3125 C34.89128822 54.84534514 35.06092732 64.03847518 33.3125 72.5 C30.75942908 81.1917881 26.20833271 86.43736528 18.5625 91.1875 C1.90087408 100.14001542 -15.84096804 99.34464098 -33.625 94.1875 C-35.64914434 93.57330781 -37.67135072 92.95244877 -39.6875 92.3125 C-40.60030675 88.56251029 -40.69643813 85.4108194 -40.34765625 81.57421875 C-40.25419922 80.50751953 -40.16074219 79.44082031 -40.06445312 78.34179688 C-39.90879883 76.68760742 -39.90879883 76.68760742 -39.75 75 C-39.65009766 73.87787109 -39.55019531 72.75574219 -39.44726562 71.59960938 C-39.20035856 68.83660179 -38.94689059 66.07435892 -38.6875 63.3125 C-35.7175 63.3125 -32.7475 63.3125 -29.6875 63.3125 C-29.62433594 64.25351562 -29.56117187 65.19453125 -29.49609375 66.1640625 C-28.93957393 74.47324979 -28.93957393 74.47324979 -24.4375 81.0625 C-19.05504391 84.96354616 -13.17260097 85.6554751 -6.6875 85.625 C-6.00171875 85.64111328 -5.3159375 85.65722656 -4.609375 85.67382812 C0.11256639 85.67833379 3.30568536 84.78835263 7.3125 82.3125 C10.31132541 78.81387035 10.65732874 75.80665713 10.7109375 71.375 C10.15653267 68.50513969 9.0408722 66.65952891 7.3125 64.3125 C5.38268477 63.06202026 5.38268477 63.06202026 3 62.375 C1.55947266 61.89740234 1.55947266 61.89740234 0.08984375 61.41015625 C-2.95258055 60.52605984 -5.99725954 59.68564532 -9.05859375 58.87109375 C-10.0230542 58.61384521 -10.98751465 58.35659668 -11.98120117 58.09155273 C-13.91973446 57.58070463 -15.86127436 57.08110431 -17.8059082 56.59399414 C-26.28757948 54.39421238 -32.54981273 51.65205324 -37.6875 44.3125 C-40.92467972 36.35017373 -41.36282172 26.25542175 -38 18.25 C-33.24518251 9.46428188 -26.68617599 4.27003254 -17.15625 1.16015625 C-11.49905087 -0.13773821 -5.77624034 -0.02698984 0 0 Z " fill="#0D8" transform="translate(1054.6875,627.6875)"/>
<path d="M0 0 C1.15234131 0.00201416 2.30468262 0.00402832 3.49194336 0.00610352 C23.23924594 0.23924594 23.23924594 0.23924594 27.3125 4.3125 C27.3292793 6.31413877 27.27512541 8.31644864 27.19140625 10.31640625 C27.14306641 11.53134766 27.09472656 12.74628906 27.04492188 13.99804688 C26.98884766 15.27744141 26.93277344 16.55683594 26.875 17.875 C26.82279297 19.15826172 26.77058594 20.44152344 26.71679688 21.76367188 C26.5866304 24.94683391 26.45164999 28.12972004 26.3125 31.3125 C23.3425 31.3125 20.3725 31.3125 17.3125 31.3125 C17.22613281 30.50425781 17.13976563 29.69601562 17.05078125 28.86328125 C16.21076489 22.08355654 16.21076489 22.08355654 13 16.1875 C6.22031107 11.45748447 -0.64398432 11.56362095 -8.6875 12.3125 C-12.58964613 13.48822807 -14.97117662 15.17832132 -17.1875 18.6875 C-17.81835755 21.99950214 -17.71632214 24.08885729 -16.6875 27.3125 C-12.39663213 31.81140994 -7.54015088 32.5905807 -1.6875 33.8125 C0.20240162 34.23963501 2.09172873 34.66932002 3.98046875 35.1015625 C4.89489746 35.30813477 5.80932617 35.51470703 6.75146484 35.72753906 C15.94927459 37.82839246 24.05276726 39.74932676 30.3125 47.3125 C34.89128822 54.84534514 35.06092732 64.03847518 33.3125 72.5 C30.75942908 81.1917881 26.20833271 86.43736528 18.5625 91.1875 C2.07676552 99.91643312 -16.74550362 99.17950551 -34.44921875 94.3828125 C-37.6875 93.3125 -37.6875 93.3125 -40.6875 91.3125 C-40.0275 82.0725 -39.3675 72.8325 -38.6875 63.3125 C-35.7175 63.3125 -32.7475 63.3125 -29.6875 63.3125 C-29.62433594 64.25351562 -29.56117187 65.19453125 -29.49609375 66.1640625 C-28.93957393 74.47324979 -28.93957393 74.47324979 -24.4375 81.0625 C-19.05504391 84.96354616 -13.17260097 85.6554751 -6.6875 85.625 C-6.00171875 85.64111328 -5.3159375 85.65722656 -4.609375 85.67382812 C0.11256639 85.67833379 3.30568536 84.78835263 7.3125 82.3125 C10.31132541 78.81387035 10.65732874 75.80665713 10.7109375 71.375 C10.15653267 68.50513969 9.0408722 66.65952891 7.3125 64.3125 C5.38268477 63.06202026 5.38268477 63.06202026 3 62.375 C1.55947266 61.89740234 1.55947266 61.89740234 0.08984375 61.41015625 C-2.95258055 60.52605984 -5.99725954 59.68564532 -9.05859375 58.87109375 C-10.0230542 58.61384521 -10.98751465 58.35659668 -11.98120117 58.09155273 C-13.91973446 57.58070463 -15.86127436 57.08110431 -17.8059082 56.59399414 C-26.28757948 54.39421238 -32.54981273 51.65205324 -37.6875 44.3125 C-40.92467972 36.35017373 -41.36282172 26.25542175 -38 18.25 C-33.24518251 9.46428188 -26.68617599 4.27003254 -17.15625 1.16015625 C-11.49905087 -0.13773821 -5.77624034 -0.02698984 0 0 Z " fill="#0D8" transform="translate(1488.6875,627.6875)"/>
<path d="M0 0 C-0.31154487 4.25007057 -0.62441536 8.50004261 -0.9375 12.75 C-1.02451172 13.93722656 -1.11152344 15.12445312 -1.20117188 16.34765625 C-1.28818359 17.52714844 -1.37519531 18.70664062 -1.46484375 19.921875 C-1.543396 20.99018555 -1.62194824 22.05849609 -1.70288086 23.15917969 C-2.11149988 28.44134444 -2.56002951 33.72035418 -3 39 C6.24 39 15.48 39 25 39 C24.01 43.62 23.02 48.24 22 53 C13.75 53 5.5 53 -3 53 C-2.90271381 59.24423746 -2.79976391 65.48786502 -2.68261719 71.73168945 C-2.64449635 73.85272662 -2.60961499 75.97382473 -2.578125 78.0949707 C-2.53210556 81.15598223 -2.474174 84.21658034 -2.4140625 87.27734375 C-2.39673569 88.6841465 -2.39673569 88.6841465 -2.37905884 90.11936951 C-2.4285793 100.34770495 -2.4285793 100.34770495 2 109 C4.74485593 109.14507695 7.38480543 109.18652423 10.125 109.125 C10.87910156 109.11597656 11.63320312 109.10695313 12.41015625 109.09765625 C14.27357254 109.0740687 16.13682593 109.03819719 18 109 C18.66 110.32 19.32 111.64 20 113 C18.21285146 115.3161206 16.42058195 117.62793272 14.625 119.9375 C14.11710937 120.59685547 13.60921875 121.25621094 13.0859375 121.93554688 C12.59609375 122.56396484 12.10625 123.19238281 11.6015625 123.83984375 C11.15119629 124.42113037 10.70083008 125.00241699 10.23681641 125.60131836 C7.2150088 129.01859743 2.63846203 128.61197759 -1.625 128.9296875 C-9.41913569 129.09206533 -16.97064588 128.29406703 -23 123 C-27.45161475 118.47540796 -29.12264405 114.96705816 -29.12939453 108.66894531 C-29.13254669 107.81995667 -29.13569885 106.97096802 -29.13894653 106.09625244 C-29.1369223 105.18277039 -29.13489807 104.26928833 -29.1328125 103.328125 C-29.13424759 101.89530182 -29.13424759 101.89530182 -29.13571167 100.43353271 C-29.1363923 98.40604588 -29.13454617 96.37855687 -29.13037109 94.35107422 C-29.12509181 91.30300749 -29.13028302 88.25509296 -29.13671875 85.20703125 C-29.14012493 74.09606959 -28.88522301 63.07839453 -28 52 C-34.435 52.495 -34.435 52.495 -41 53 C-41.6875 49.9375 -41.6875 49.9375 -41 46 C-37.51870947 43.03890231 -32.74162575 39 -28 39 C-28.0714624 38.40719238 -28.1429248 37.81438477 -28.21655273 37.20361328 C-28.93738278 30.73565878 -29.12187361 24.37869417 -29.0625 17.875 C-29.05573242 16.44027344 -29.05573242 16.44027344 -29.04882812 14.9765625 C-29.03720017 12.65097242 -29.02086102 10.3255224 -29 8 C-28.37432129 7.76289307 -27.74864258 7.52578613 -27.10400391 7.28149414 C-24.27725731 6.2095788 -21.45112254 5.13605953 -18.625 4.0625 C-17.64015625 3.68931641 -16.6553125 3.31613281 -15.640625 2.93164062 C-14.69960937 2.57392578 -13.75859375 2.21621094 -12.7890625 1.84765625 C-11.91975098 1.51773682 -11.05043945 1.18781738 -10.15478516 0.84790039 C-6.1050021 -0.74567502 -4.41244922 -0.86330528 0 0 Z " fill="#0D8" transform="translate(1139,597)"/>
</svg>
