<svg id="svg" xmlns="http://www.w3.org/2000/svg" xmlns:xlink="http://www.w3.org/1999/xlink" width="400"
    height="133.33333333333334" viewBox="0, 0, 400,133.33333333333334">
    <g id="layer">
        <path id="path0"
            d="M9.524 58.571 L 9.524 112.381 61.524 112.381 L 113.524 112.381 113.524 109.524 L 113.524 106.667 64.381 106.667 L 15.238 106.667 15.238 58.571 L 15.238 10.476 199.619 10.476 L 384.000 10.476 384.000 58.571 L 384.000 106.667 335.714 106.667 L 287.429 106.667 287.429 109.524 L 287.429 112.381 338.571 112.381 L 389.714 112.381 389.714 58.571 L 389.714 4.762 199.619 4.762 L 9.524 4.762 9.524 58.571 M216.021 16.872 C 209.083 18.738,205.819 27.629,209.840 33.707 C 215.912 42.882,230.089 38.620,230.089 27.619 C 230.089 20.277,223.129 14.961,216.021 16.872 M260.762 21.829 C 257.477 22.295,251.331 22.857,249.520 22.857 C 248.851 22.857,248.303 22.971,248.019 23.170 L 247.573 23.482 247.715 35.265 C 247.827 44.668,247.808 47.048,247.617 47.048 C 247.485 47.048,246.754 46.455,245.992 45.731 C 240.980 40.971,230.780 40.751,223.965 45.256 C 211.544 53.468,210.924 76.128,222.874 85.132 C 230.339 90.758,241.127 90.618,247.770 84.811 C 249.224 83.540,249.186 83.507,249.358 86.149 C 249.435 87.324,249.503 88.312,249.511 88.343 C 249.644 88.919,262.421 89.295,264.762 88.792 C 265.573 88.618,265.578 88.535,265.087 82.857 C 263.977 70.012,264.206 40.890,265.534 26.020 C 266.015 20.632,266.458 21.021,260.762 21.829 M364.571 21.829 C 361.287 22.295,355.140 22.857,353.330 22.857 C 352.660 22.857,352.112 22.971,351.829 23.170 L 351.383 23.482 351.524 35.265 C 351.637 44.668,351.617 47.048,351.426 47.048 C 351.295 47.048,350.563 46.455,349.801 45.731 C 344.790 40.971,334.589 40.751,327.774 45.256 C 315.354 53.468,314.734 76.128,326.683 85.132 C 334.149 90.758,344.936 90.618,351.580 84.811 C 353.034 83.540,352.995 83.507,353.167 86.149 C 353.244 87.324,353.313 88.312,353.320 88.343 C 353.453 88.919,366.231 89.295,368.571 88.792 C 369.383 88.618,369.387 88.535,368.897 82.857 C 367.786 70.012,368.015 40.890,369.343 26.020 C 369.824 20.632,370.267 21.021,364.571 21.829 M147.184 21.855 C 146.868 22.208,146.848 22.773,146.899 29.988 L 146.952 37.742 147.788 38.521 L 148.623 39.300 166.930 39.188 C 177.000 39.126,189.738 39.137,195.238 39.213 C 200.738 39.289,205.267 39.332,205.303 39.309 C 205.441 39.219,206.086 36.062,206.090 35.450 C 206.095 34.879,205.859 34.573,204.037 32.783 C 201.644 30.432,199.960 28.031,198.391 24.729 C 197.817 23.522,197.217 22.427,197.058 22.295 C 196.831 22.106,193.390 22.060,180.813 22.080 C 172.037 22.093,162.500 22.019,159.619 21.914 C 146.275 21.428,147.562 21.434,147.184 21.855 M122.952 21.921 C 122.010 22.006,119.265 22.246,116.854 22.455 C 111.121 22.952,111.586 22.694,111.821 25.244 C 113.188 40.066,113.562 69.751,112.545 82.802 C 112.167 87.655,112.193 88.230,112.803 88.526 C 113.422 88.826,127.679 88.875,128.456 88.579 C 128.834 88.435,129.017 88.093,129.417 86.781 C 130.026 84.785,130.036 84.779,131.171 85.726 C 136.800 90.428,147.294 90.377,154.006 85.617 C 167.451 76.081,165.946 50.737,151.533 43.983 C 144.668 40.766,136.196 41.532,131.480 45.795 C 130.369 46.799,129.915 46.851,129.677 46.000 C 129.495 45.354,129.818 32.069,130.093 28.855 C 130.394 25.344,130.402 22.369,130.112 22.020 C 129.827 21.676,126.225 21.626,122.952 21.921 M184.857 40.878 C 167.770 43.928,159.172 64.479,168.987 78.808 C 181.652 97.296,210.250 90.313,213.397 67.964 L 213.496 67.262 212.510 67.150 C 210.255 66.895,199.172 65.905,198.564 65.905 C 197.961 65.905,197.905 65.953,197.905 66.467 C 197.905 75.066,187.000 74.923,181.849 66.256 C 178.204 60.122,182.855 53.125,188.673 55.989 L 189.950 56.617 186.780 59.791 L 183.611 62.965 184.329 64.151 C 185.399 65.917,186.500 67.098,188.015 68.105 L 189.372 69.007 198.769 59.612 C 206.843 51.539,208.140 50.166,207.978 49.864 C 207.603 49.164,204.441 46.120,202.945 45.020 C 197.916 41.321,191.108 39.762,184.857 40.878 M289.228 41.612 C 277.957 43.659,271.051 52.346,270.720 64.889 C 270.483 73.922,273.026 79.993,279.074 84.832 C 288.026 91.995,305.724 91.677,312.810 84.228 C 313.413 83.593,313.905 82.900,313.905 82.685 C 313.905 81.352,310.496 74.699,308.992 73.095 C 308.341 72.402,308.240 72.418,306.507 73.504 C 300.835 77.059,295.210 77.793,290.535 75.587 C 288.598 74.673,286.476 72.351,286.476 71.145 C 286.476 71.009,288.080 70.819,291.095 70.599 C 295.890 70.249,303.575 69.565,309.333 68.974 C 314.276 68.468,315.068 67.813,315.367 63.994 C 316.067 55.022,309.598 45.321,300.952 42.381 C 297.899 41.342,292.618 40.996,289.228 41.612 M58.000 42.766 C 55.085 43.409,53.119 44.410,49.235 47.234 C 47.784 48.288,46.538 49.084,46.465 49.004 C 46.392 48.923,46.248 47.637,46.145 46.147 C 45.881 42.328,45.820 42.300,40.610 43.609 C 38.586 44.117,36.646 44.457,34.609 44.660 C 28.484 45.271,28.873 44.780,29.515 51.100 C 30.192 57.773,30.317 61.864,30.252 75.270 C 30.218 82.359,30.251 88.220,30.326 88.294 C 31.184 89.152,45.976 89.133,46.605 88.273 C 46.809 87.993,46.857 85.336,46.857 74.421 C 46.857 59.246,46.765 60.236,48.310 58.876 C 52.081 55.557,56.876 55.878,58.180 59.537 C 58.681 60.943,58.892 68.106,58.745 78.762 C 58.624 87.565,58.628 87.722,59.008 88.190 L 59.395 88.667 66.316 88.725 C 70.123 88.757,73.581 88.733,74.000 88.672 C 75.451 88.459,75.333 89.661,75.333 75.099 L 75.333 61.995 75.958 60.724 C 78.315 55.932,84.845 55.047,86.664 59.273 C 87.389 60.960,87.593 68.469,87.264 81.429 C 87.099 87.934,87.156 88.224,88.687 88.582 C 89.987 88.886,102.368 88.812,103.125 88.496 C 104.022 88.121,103.968 89.403,103.923 69.524 L 103.882 51.524 103.454 50.307 C 100.000 40.491,84.243 39.669,75.648 48.857 C 74.990 49.560,74.434 50.104,74.411 50.067 C 74.388 50.030,74.115 49.444,73.804 48.764 C 71.652 44.064,64.474 41.340,58.000 42.766 M294.762 54.065 C 297.481 55.353,300.050 59.920,298.518 60.740 C 297.925 61.057,292.233 61.721,289.023 61.847 L 286.141 61.960 285.825 61.479 C 285.554 61.065,285.538 60.814,285.712 59.689 C 286.453 54.909,290.817 52.197,294.762 54.065 M141.368 57.099 C 148.259 60.491,147.537 72.137,140.309 74.198 C 132.592 76.398,126.710 68.174,130.568 60.580 C 132.491 56.795,137.482 55.186,141.368 57.099 M242.952 57.043 C 251.422 61.100,248.872 74.381,239.624 74.381 C 232.272 74.381,228.737 65.796,233.402 59.270 C 235.345 56.552,239.772 55.519,242.952 57.043 M346.762 57.043 C 355.232 61.100,352.682 74.381,343.433 74.381 C 336.081 74.381,332.547 65.796,337.212 59.270 C 339.155 56.552,343.581 55.519,346.762 57.043 M146.174 92.283 C 142.139 93.161,139.714 96.164,139.714 100.286 C 139.714 104.907,141.561 106.503,148.095 107.525 C 151.828 108.109,153.220 108.876,153.703 110.614 C 154.837 114.699,150.478 117.708,145.581 116.221 C 142.798 115.376,141.906 114.406,141.760 112.067 L 141.661 110.476 140.735 110.476 L 139.810 110.476 139.806 112.429 C 139.804 113.502,139.677 114.975,139.523 115.701 C 139.369 116.427,139.264 117.033,139.288 117.047 C 143.228 119.258,150.079 119.507,153.933 117.579 C 157.274 115.908,159.044 112.794,158.807 109.005 C 158.580 105.364,156.809 103.706,152.349 102.957 C 146.063 101.901,144.871 101.317,144.452 99.081 C 143.933 96.316,146.100 94.381,149.714 94.381 C 153.390 94.381,154.716 95.250,154.829 97.734 L 154.897 99.238 155.794 99.238 L 156.691 99.238 156.940 96.905 C 157.347 93.097,157.387 93.351,156.302 92.923 C 153.983 92.007,148.913 91.687,146.174 92.283 M205.048 94.675 C 204.629 94.872,203.610 95.272,202.784 95.564 L 201.281 96.095 201.398 98.963 L 201.514 101.831 200.281 102.553 C 199.177 103.199,199.048 103.337,199.047 103.875 L 199.047 104.476 200.276 104.413 L 201.504 104.349 201.390 109.651 C 201.209 118.024,201.639 118.847,206.190 118.850 C 208.411 118.852,208.224 118.938,209.593 117.264 C 210.998 115.547,210.905 115.333,208.751 115.333 C 206.346 115.333,206.397 115.459,206.314 109.421 L 206.248 104.583 208.588 104.530 L 210.929 104.476 211.253 103.190 L 211.577 101.905 208.905 101.905 L 206.234 101.905 206.363 99.857 C 206.434 98.731,206.579 97.089,206.684 96.207 C 206.930 94.148,206.675 93.910,205.048 94.675 M187.619 100.642 C 184.037 101.683,182.221 105.268,183.672 108.437 C 184.433 110.099,185.131 110.481,189.317 111.527 C 192.276 112.266,192.952 112.779,192.952 114.286 C 192.952 118.081,185.622 117.540,185.238 113.716 L 185.104 112.381 184.285 112.381 L 183.465 112.381 183.341 114.429 C 183.272 115.555,183.178 116.690,183.132 116.952 C 182.998 117.711,183.245 117.880,185.251 118.397 C 191.886 120.108,197.235 117.375,197.210 112.286 C 197.195 109.143,195.989 108.033,191.619 107.143 C 187.611 106.326,186.518 105.323,187.691 103.533 C 188.964 101.589,193.905 102.430,193.905 104.590 C 193.905 105.950,194.096 106.286,194.870 106.286 C 195.799 106.286,195.753 106.416,195.835 103.547 L 195.905 101.094 195.048 100.814 C 193.854 100.425,188.769 100.307,187.619 100.642 M219.524 100.638 C 215.039 102.119,213.069 104.592,212.827 109.048 C 212.496 115.123,215.454 118.637,221.054 118.824 C 224.894 118.952,227.443 118.067,228.254 116.323 C 228.962 114.800,228.543 114.436,226.941 115.181 C 222.870 117.077,218.812 115.012,218.021 110.642 L 217.896 109.952 221.853 109.826 C 224.029 109.757,226.571 109.600,227.502 109.477 L 229.193 109.253 229.089 107.341 C 228.905 103.983,227.874 102.135,225.562 101.018 C 224.267 100.392,220.909 100.181,219.524 100.638 M237.085 100.772 C 235.841 101.179,232.985 101.713,232.048 101.714 C 231.432 101.714,231.429 101.719,231.429 102.667 L 231.429 103.619 232.548 103.619 C 233.215 103.619,233.744 103.715,233.858 103.857 C 234.126 104.193,234.344 110.921,234.180 113.804 C 234.018 116.638,233.946 116.762,232.463 116.762 L 231.429 116.762 231.429 117.619 L 231.429 118.476 236.582 118.476 L 241.736 118.476 241.678 117.667 L 241.619 116.857 240.594 116.732 C 240.030 116.663,239.495 116.492,239.406 116.351 C 239.275 116.144,239.126 110.325,239.159 106.712 C 239.186 103.854,244.005 102.859,244.884 105.530 C 245.193 106.469,245.401 111.412,245.237 113.920 C 245.075 116.397,244.867 116.762,243.619 116.762 L 242.857 116.762 242.857 117.619 L 242.857 118.476 247.905 118.476 L 252.952 118.476 252.952 117.643 L 252.952 116.809 251.876 116.720 C 250.361 116.594,250.349 116.564,250.188 112.473 C 249.907 105.368,250.432 104.000,253.437 104.000 C 256.180 104.000,256.817 106.106,256.344 113.619 C 256.225 115.505,256.120 117.348,256.112 117.714 L 256.095 118.381 260.048 118.432 L 264.000 118.484 264.000 117.623 L 264.000 116.762 263.084 116.762 C 261.361 116.762,261.442 117.072,261.333 110.063 L 261.238 103.905 260.720 102.849 C 259.843 101.065,258.500 100.381,255.871 100.381 C 253.931 100.381,253.595 100.533,251.546 102.338 L 250.035 103.670 249.663 102.930 C 247.997 99.618,244.080 99.341,240.484 102.280 L 239.009 103.485 239.076 101.980 C 239.155 100.209,239.033 100.135,237.085 100.772 M270.286 100.642 C 266.703 101.683,264.888 105.268,266.338 108.437 C 267.099 110.099,267.797 110.481,271.984 111.527 C 274.943 112.266,275.619 112.779,275.619 114.286 C 275.619 118.081,268.289 117.540,267.905 113.716 L 267.771 112.381 266.951 112.381 L 266.132 112.381 266.007 114.429 C 265.939 115.555,265.845 116.690,265.799 116.952 C 265.665 117.711,265.912 117.880,267.917 118.397 C 274.552 120.108,279.901 117.375,279.877 112.286 C 279.862 109.143,278.655 108.033,274.286 107.143 C 270.277 106.326,269.185 105.323,270.358 103.533 C 271.631 101.589,276.571 102.430,276.571 104.590 C 276.571 105.950,276.762 106.286,277.536 106.286 C 278.466 106.286,278.420 106.416,278.501 103.547 L 278.571 101.094 277.714 100.814 C 276.520 100.425,271.436 100.307,270.286 100.642 M160.571 101.619 L 160.571 102.476 161.342 102.476 C 162.712 102.476,162.656 102.366,167.494 114.659 L 169.477 119.700 168.823 121.136 C 167.129 124.854,165.433 125.889,163.351 124.476 C 162.216 123.705,162.016 123.807,161.760 125.286 C 161.637 125.993,161.481 126.850,161.412 127.190 C 161.037 129.031,166.086 128.806,168.060 126.894 C 169.279 125.714,169.907 124.454,174.292 114.381 C 179.785 101.764,179.298 102.689,180.565 102.485 C 181.200 102.382,181.241 102.331,181.297 101.569 L 181.355 100.762 177.630 100.762 L 173.905 100.762 173.905 101.619 L 173.905 102.476 174.834 102.476 C 176.662 102.476,176.610 102.823,173.759 109.573 L 172.250 113.147 171.927 112.335 C 168.037 102.543,168.024 102.476,170.016 102.476 L 170.857 102.476 170.857 101.619 L 170.857 100.762 165.714 100.762 L 160.571 100.762 160.571 101.619 M222.859 103.385 C 223.664 104.191,223.997 105.135,223.999 106.619 L 224.000 107.619 220.875 107.619 L 217.751 107.619 217.839 106.810 C 218.172 103.745,219.024 102.669,221.118 102.667 C 222.047 102.667,222.206 102.732,222.859 103.385 M122.476 114.050 C 122.476 123.356,122.462 123.747,122.095 124.431 C 121.205 126.092,121.826 127.810,123.318 127.810 C 124.822 127.810,125.411 125.958,124.420 124.346 C 124.007 123.675,123.954 123.154,123.982 120.050 L 124.000 118.101 124.619 118.478 C 126.046 119.349,127.936 118.911,129.997 117.232 C 130.902 116.495,131.070 116.419,131.159 116.709 C 132.183 120.060,136.310 119.561,136.876 116.017 C 137.031 115.050,136.335 114.819,136.103 115.762 C 135.775 117.097,134.807 117.585,134.201 116.720 C 133.948 116.358,133.905 115.422,133.905 110.339 L 133.905 104.381 132.476 104.381 L 131.048 104.381 131.048 109.697 L 131.048 115.014 130.451 115.516 C 128.471 117.182,126.295 117.170,125.593 115.491 C 125.395 115.017,125.333 113.623,125.333 109.625 L 125.333 104.381 123.905 104.381 L 122.476 104.381 122.476 114.050 M123.619 126.286 C 123.619 126.540,123.492 126.667,123.238 126.667 C 122.984 126.667,122.857 126.540,122.857 126.286 C 122.857 126.032,122.984 125.905,123.238 125.905 C 123.492 125.905,123.619 126.032,123.619 126.286 "
            stroke="none" fill="#00DD88" fill-rule="evenodd">
        </path>
    </g>
</svg>