<svg id="svg" version="1.1" xmlns="http://www.w3.org/2000/svg" xmlns:xlink="http://www.w3.org/1999/xlink" width="400" height="150.08818342151676" viewBox="0, 0, 400,150.08818342151676"><g id="svgg"><path id="path0" d="M26.459 72.000 L 26.501 121.833 74.626 121.834 L 122.750 121.834 122.700 119.167 L 122.651 116.500 77.159 116.500 L 31.667 116.500 31.667 72.000 L 31.667 27.500 202.417 27.500 L 373.167 27.500 373.167 72.000 L 373.167 116.500 328.412 116.500 L 283.658 116.500 283.704 119.125 L 283.750 121.750 331.125 121.792 L 378.500 121.834 378.500 72.000 L 378.500 22.167 202.458 22.167 L 26.417 22.167 26.459 72.000 M220.159 32.896 C 220.117 32.937,219.671 33.013,219.167 33.065 C 217.726 33.213,217.333 33.293,217.102 33.485 C 216.983 33.583,216.837 33.614,216.776 33.554 C 216.716 33.494,216.667 33.536,216.667 33.649 C 216.667 33.761,216.592 33.807,216.500 33.750 C 216.408 33.693,216.333 33.731,216.333 33.833 C 216.333 33.936,216.258 33.973,216.167 33.917 C 216.075 33.860,216.000 33.898,216.000 34.000 C 216.000 34.102,215.925 34.140,215.833 34.083 C 215.742 34.027,215.667 34.064,215.667 34.167 C 215.667 34.269,215.603 34.314,215.525 34.266 C 215.447 34.218,215.226 34.326,215.032 34.506 C 214.839 34.686,214.640 34.833,214.590 34.833 C 214.311 34.833,212.000 37.161,212.000 37.443 C 212.000 37.503,211.824 37.784,211.609 38.068 C 210.513 39.514,209.939 43.073,210.411 45.500 C 210.473 45.821,210.550 46.233,210.582 46.417 C 210.613 46.600,210.654 46.788,210.673 46.833 C 210.691 46.879,210.697 46.973,210.686 47.042 C 210.676 47.110,210.742 47.167,210.833 47.167 C 210.925 47.167,210.985 47.223,210.966 47.292 C 210.903 47.520,211.627 48.961,211.983 49.317 C 212.176 49.509,212.297 49.667,212.253 49.667 C 212.209 49.667,212.639 50.135,213.209 50.708 C 213.778 51.281,214.304 51.731,214.377 51.707 C 214.450 51.683,214.553 51.777,214.606 51.915 C 214.659 52.053,214.807 52.167,214.934 52.167 C 215.062 52.167,215.167 52.246,215.167 52.343 C 215.167 52.440,215.242 52.473,215.333 52.417 C 215.425 52.360,215.500 52.397,215.500 52.498 C 215.500 52.708,216.513 53.178,216.707 53.059 C 216.776 53.016,216.833 53.052,216.833 53.139 C 216.833 53.606,220.665 53.920,222.417 53.596 C 223.386 53.418,223.386 53.417,223.750 53.217 C 223.933 53.116,224.140 53.027,224.210 53.020 C 225.162 52.922,228.030 50.676,228.978 49.286 C 229.117 49.083,229.277 48.879,229.333 48.833 C 229.512 48.687,230.209 47.105,230.361 46.500 C 231.202 43.140,230.612 39.549,228.829 37.178 C 228.140 36.261,226.458 34.667,226.181 34.667 C 226.097 34.667,226.003 34.610,225.972 34.542 C 225.916 34.415,224.486 33.676,224.333 33.695 C 224.287 33.701,223.968 33.588,223.624 33.444 C 223.279 33.300,222.567 33.138,222.040 33.083 C 221.514 33.028,220.892 32.947,220.659 32.902 C 220.425 32.858,220.200 32.855,220.159 32.896 M260.916 37.640 C 260.885 37.670,260.573 37.726,260.222 37.763 C 259.871 37.800,259.283 37.868,258.917 37.915 C 258.303 37.992,257.732 38.057,255.917 38.258 C 254.406 38.425,251.317 38.663,249.500 38.752 C 247.774 38.837,247.680 38.855,247.192 39.197 L 246.803 39.469 246.898 49.610 C 246.950 55.187,247.042 60.106,247.102 60.542 C 247.252 61.621,247.010 61.577,245.663 60.279 C 245.065 59.703,244.446 59.182,244.288 59.121 C 244.129 59.060,244.000 58.933,244.000 58.839 C 244.000 58.744,243.893 58.667,243.762 58.667 C 243.631 58.667,243.425 58.572,243.304 58.456 C 243.099 58.261,242.189 57.804,242.000 57.801 C 241.954 57.801,241.772 57.723,241.595 57.628 C 241.224 57.430,239.760 57.053,238.667 56.876 C 237.712 56.721,232.605 56.738,231.833 56.899 C 231.512 56.966,231.100 57.051,230.917 57.088 C 230.733 57.125,230.471 57.179,230.333 57.208 C 230.196 57.236,229.990 57.318,229.875 57.390 C 229.760 57.461,229.597 57.477,229.512 57.424 C 229.426 57.371,229.309 57.405,229.250 57.500 C 229.191 57.595,229.079 57.632,229.000 57.583 C 228.921 57.535,228.809 57.572,228.750 57.667 C 228.691 57.761,228.574 57.796,228.488 57.743 C 228.403 57.690,228.333 57.739,228.333 57.851 C 228.333 57.964,228.284 58.006,228.224 57.946 C 228.163 57.886,228.013 57.920,227.890 58.022 C 227.767 58.124,227.667 58.160,227.667 58.101 C 227.667 57.958,226.001 58.808,225.708 59.101 C 225.581 59.229,225.369 59.333,225.238 59.333 C 225.107 59.333,225.000 59.408,225.000 59.500 C 225.000 59.592,224.922 59.667,224.826 59.667 C 224.638 59.667,224.302 59.915,223.868 60.375 C 223.716 60.535,223.508 60.667,223.405 60.667 C 223.302 60.667,222.850 61.093,222.400 61.614 C 221.951 62.134,221.415 62.724,221.208 62.924 C 221.002 63.124,220.833 63.357,220.833 63.440 C 220.833 63.524,220.702 63.716,220.542 63.868 C 220.090 64.294,219.833 64.637,219.833 64.814 C 219.833 64.903,219.740 65.075,219.625 65.196 C 219.448 65.384,218.955 66.232,218.481 67.167 C 217.481 69.138,216.562 72.070,216.262 74.250 C 215.932 76.646,215.876 77.430,215.930 78.917 C 216.008 81.053,216.123 82.210,216.418 83.833 C 216.476 84.154,216.541 84.530,216.562 84.670 C 216.582 84.809,216.659 85.020,216.733 85.139 C 216.807 85.258,216.822 85.400,216.768 85.454 C 216.714 85.508,216.755 85.655,216.859 85.780 C 216.962 85.906,217.005 86.051,216.953 86.102 C 216.866 86.190,217.140 87.132,217.480 87.917 C 217.958 89.017,218.060 89.272,218.098 89.473 C 218.122 89.596,218.248 89.821,218.378 89.973 C 218.509 90.125,218.784 90.606,218.989 91.042 C 219.195 91.477,219.436 91.833,219.525 91.833 C 219.614 91.833,219.645 91.900,219.594 91.983 C 219.543 92.065,219.619 92.177,219.762 92.231 C 219.904 92.286,219.978 92.401,219.924 92.487 C 219.871 92.573,219.979 92.749,220.163 92.879 C 220.347 93.008,220.457 93.155,220.406 93.205 C 220.355 93.256,220.544 93.461,220.826 93.661 C 221.107 93.862,221.302 94.082,221.260 94.151 C 221.217 94.220,221.602 94.683,222.115 95.180 C 222.627 95.677,222.993 95.971,222.928 95.833 C 222.863 95.696,223.004 95.808,223.242 96.083 C 223.480 96.358,223.746 96.565,223.832 96.543 C 223.919 96.521,224.071 96.655,224.170 96.840 C 224.269 97.025,224.422 97.132,224.510 97.077 C 224.597 97.023,224.714 97.096,224.769 97.238 C 224.823 97.381,224.928 97.461,225.000 97.417 C 225.072 97.372,225.177 97.452,225.231 97.595 C 225.286 97.738,225.399 97.813,225.481 97.762 C 225.564 97.710,225.677 97.785,225.731 97.928 C 225.786 98.071,225.907 98.141,225.999 98.084 C 226.091 98.027,226.167 98.064,226.167 98.167 C 226.167 98.269,226.242 98.307,226.333 98.250 C 226.425 98.193,226.500 98.231,226.500 98.333 C 226.500 98.436,226.575 98.473,226.667 98.417 C 226.758 98.360,226.833 98.398,226.833 98.500 C 226.833 98.602,226.902 98.644,226.986 98.592 C 227.070 98.540,227.165 98.577,227.197 98.675 C 227.230 98.772,227.367 98.874,227.503 98.901 C 227.639 98.928,227.938 99.028,228.167 99.122 C 228.396 99.217,228.640 99.261,228.708 99.221 C 228.777 99.180,228.833 99.218,228.833 99.305 C 228.833 99.456,229.931 99.759,230.226 99.689 C 230.304 99.670,230.454 99.723,230.559 99.806 C 230.664 99.890,231.088 100.006,231.500 100.065 C 231.912 100.125,232.550 100.215,232.917 100.267 C 234.220 100.452,237.935 100.353,239.167 100.100 C 239.487 100.034,239.862 99.962,240.000 99.938 C 240.552 99.844,242.269 99.316,242.561 99.150 C 242.731 99.053,243.023 98.944,243.208 98.909 C 243.394 98.873,243.667 98.740,243.814 98.613 C 243.962 98.487,244.421 98.203,244.833 97.983 C 245.246 97.763,245.621 97.542,245.667 97.491 C 245.713 97.441,246.046 97.178,246.408 96.908 C 246.770 96.638,247.250 96.248,247.474 96.042 C 248.189 95.385,248.349 95.706,248.427 97.945 C 248.470 99.187,248.726 100.163,248.950 99.939 C 248.999 99.890,249.148 99.958,249.281 100.091 C 249.625 100.435,262.423 100.299,262.774 99.948 C 262.837 99.885,263.035 99.833,263.213 99.833 C 263.532 99.833,263.545 97.982,263.248 94.833 C 262.960 91.781,262.857 89.650,262.711 83.750 C 262.427 72.251,262.667 55.908,263.249 47.083 C 263.346 45.623,263.528 43.109,263.593 42.333 C 264.020 37.261,264.075 37.451,262.207 37.531 C 261.528 37.560,260.947 37.609,260.916 37.640 M357.088 37.634 C 357.060 37.663,356.710 37.723,356.310 37.768 C 355.541 37.855,354.940 37.923,353.583 38.077 C 353.125 38.128,352.488 38.207,352.167 38.252 C 351.846 38.297,351.058 38.372,350.417 38.419 C 349.775 38.465,348.800 38.540,348.250 38.584 C 347.700 38.628,346.575 38.701,345.750 38.745 C 342.483 38.921,342.815 37.183,343.032 52.958 C 343.114 58.908,343.095 61.333,342.967 61.333 C 342.868 61.333,342.302 60.865,341.709 60.292 C 340.134 58.769,340.117 58.755,339.535 58.514 C 339.241 58.393,339.000 58.239,339.000 58.173 C 339.000 58.107,338.681 57.953,338.292 57.830 C 337.902 57.707,337.508 57.551,337.416 57.483 C 336.621 56.899,330.158 56.505,327.917 56.904 C 327.550 56.969,327.100 57.049,326.917 57.081 C 326.733 57.113,326.546 57.157,326.500 57.178 C 326.454 57.200,326.342 57.235,326.250 57.256 C 326.158 57.277,326.027 57.313,325.958 57.335 C 325.890 57.357,325.758 57.394,325.667 57.417 C 325.575 57.440,325.462 57.477,325.417 57.500 C 325.371 57.523,325.258 57.560,325.167 57.583 C 325.075 57.606,324.962 57.644,324.917 57.667 C 324.871 57.690,324.777 57.720,324.708 57.735 C 324.640 57.750,324.396 57.866,324.167 57.992 C 323.938 58.119,323.732 58.211,323.709 58.196 C 323.627 58.143,321.748 59.087,321.694 59.208 C 321.664 59.277,321.533 59.333,321.403 59.333 C 321.273 59.333,321.167 59.413,321.167 59.510 C 321.167 59.607,321.102 59.646,321.023 59.598 C 320.944 59.549,320.663 59.730,320.398 60.000 C 320.133 60.270,319.863 60.493,319.798 60.495 C 319.639 60.502,317.689 62.470,317.167 63.152 C 316.938 63.451,316.675 63.783,316.583 63.889 C 316.253 64.273,315.500 65.496,315.500 65.649 C 315.500 65.735,315.435 65.831,315.355 65.861 C 315.012 65.993,313.171 70.346,312.930 71.597 C 312.896 71.774,312.790 72.218,312.695 72.584 C 312.275 74.202,312.100 75.998,312.105 78.667 C 312.109 80.674,312.171 81.502,312.446 83.250 C 312.489 83.525,312.543 83.904,312.565 84.092 C 312.588 84.280,312.661 84.523,312.729 84.633 C 312.797 84.743,312.810 84.903,312.757 84.988 C 312.704 85.074,312.743 85.194,312.842 85.255 C 312.941 85.317,312.983 85.470,312.935 85.595 C 312.887 85.720,312.925 85.870,313.019 85.928 C 313.113 85.986,313.150 86.136,313.102 86.262 C 313.054 86.387,313.088 86.534,313.177 86.590 C 313.266 86.645,313.299 86.754,313.250 86.833 C 313.201 86.912,313.239 87.025,313.333 87.083 C 313.428 87.142,313.465 87.254,313.417 87.333 C 313.368 87.412,313.405 87.525,313.500 87.583 C 313.595 87.642,313.629 87.760,313.576 87.845 C 313.523 87.930,313.560 88.000,313.657 88.000 C 313.754 88.000,313.821 88.056,313.807 88.125 C 313.744 88.420,315.002 91.167,315.199 91.167 C 315.273 91.167,315.333 91.279,315.333 91.417 C 315.333 91.554,315.483 91.817,315.667 92.000 C 315.850 92.183,315.944 92.336,315.875 92.339 C 315.806 92.342,315.927 92.492,316.143 92.672 C 316.360 92.852,316.472 93.002,316.393 93.006 C 316.315 93.009,316.427 93.159,316.643 93.339 C 316.860 93.519,316.974 93.667,316.898 93.667 C 316.821 93.667,317.313 94.225,317.992 94.908 C 318.670 95.591,319.279 96.117,319.344 96.077 C 319.410 96.036,319.590 96.196,319.745 96.433 C 319.900 96.669,320.070 96.819,320.123 96.766 C 320.177 96.712,320.326 96.820,320.455 97.004 C 320.584 97.188,320.751 97.301,320.827 97.254 C 320.903 97.207,321.012 97.291,321.070 97.441 C 321.127 97.592,321.218 97.671,321.272 97.617 C 321.325 97.564,321.522 97.663,321.710 97.838 C 321.897 98.012,322.114 98.116,322.192 98.068 C 322.270 98.020,322.333 98.064,322.333 98.167 C 322.333 98.269,322.408 98.307,322.500 98.250 C 322.592 98.193,322.667 98.231,322.667 98.333 C 322.667 98.436,322.742 98.473,322.833 98.417 C 322.925 98.360,323.000 98.398,323.000 98.500 C 323.000 98.602,323.075 98.640,323.167 98.583 C 323.258 98.527,323.333 98.564,323.333 98.667 C 323.333 98.769,323.402 98.811,323.486 98.759 C 323.570 98.707,323.664 98.743,323.697 98.840 C 323.729 98.936,323.923 99.027,324.127 99.043 C 324.332 99.058,324.500 99.142,324.500 99.230 C 324.500 99.317,324.549 99.340,324.610 99.279 C 324.670 99.219,324.803 99.239,324.905 99.324 C 325.008 99.409,325.277 99.504,325.504 99.535 C 325.731 99.566,325.992 99.639,326.083 99.696 C 326.175 99.753,326.540 99.846,326.894 99.902 C 327.249 99.958,327.594 100.038,327.661 100.080 C 327.810 100.172,330.789 100.408,331.833 100.411 C 333.324 100.416,335.201 100.183,336.500 99.833 C 336.912 99.722,337.375 99.607,337.530 99.578 C 337.685 99.548,337.967 99.440,338.156 99.339 C 338.345 99.238,338.500 99.201,338.500 99.258 C 338.500 99.314,338.751 99.205,339.058 99.016 C 339.365 98.826,339.665 98.720,339.724 98.780 C 339.784 98.840,339.833 98.806,339.833 98.706 C 339.833 98.605,339.981 98.475,340.162 98.418 C 340.343 98.361,340.866 98.056,341.325 97.740 C 341.783 97.425,342.197 97.167,342.243 97.167 C 342.290 97.167,342.697 96.822,343.149 96.401 C 343.927 95.676,344.233 95.508,344.264 95.792 C 344.271 95.860,344.326 96.104,344.387 96.333 C 344.447 96.563,344.538 97.313,344.588 98.000 C 344.639 98.688,344.690 99.352,344.701 99.478 C 344.780 100.333,355.736 100.728,358.803 99.986 L 359.689 99.771 359.581 97.927 C 359.521 96.913,359.448 95.821,359.417 95.500 C 358.920 90.287,358.762 84.631,358.770 72.333 C 358.779 60.258,358.963 52.804,359.412 46.417 C 359.486 45.362,359.680 42.791,359.752 41.917 C 360.134 37.251,360.195 37.460,358.471 37.530 C 357.739 37.559,357.116 37.606,357.088 37.634 M153.783 38.155 C 153.450 38.720,153.355 52.224,153.683 52.427 C 153.769 52.480,153.799 52.587,153.751 52.665 C 153.703 52.743,153.762 52.906,153.883 53.028 C 154.003 53.150,154.156 53.392,154.222 53.566 C 154.287 53.739,154.386 53.836,154.440 53.782 C 154.495 53.727,154.649 53.791,154.782 53.925 C 154.915 54.058,155.262 54.164,155.554 54.161 C 155.845 54.158,167.671 54.165,181.833 54.178 C 195.996 54.191,207.671 54.194,207.778 54.184 C 207.962 54.168,208.416 52.504,208.605 51.156 C 208.704 50.444,208.317 49.381,207.900 49.221 C 207.416 49.035,204.252 45.702,204.000 45.112 C 203.877 44.825,203.287 43.951,203.044 43.696 C 202.928 43.575,202.833 43.369,202.833 43.238 C 202.833 43.107,202.777 43.000,202.708 42.999 C 202.640 42.999,202.096 41.992,201.500 40.760 C 200.904 39.529,200.329 38.517,200.222 38.511 C 200.115 38.505,199.996 38.406,199.958 38.292 C 199.903 38.127,196.529 38.079,183.903 38.063 C 175.110 38.052,166.717 37.998,165.250 37.943 C 163.783 37.888,160.670 37.801,158.332 37.749 L 154.080 37.653 153.783 38.155 M131.937 37.952 C 131.911 37.978,131.183 38.044,130.320 38.099 C 128.592 38.210,128.173 38.243,126.333 38.417 C 125.646 38.482,124.821 38.559,124.500 38.589 C 122.943 38.733,122.054 38.834,121.750 38.901 C 121.567 38.941,121.364 38.980,121.300 38.987 C 121.148 39.004,120.822 40.180,120.923 40.344 C 120.999 40.467,121.145 41.923,121.248 43.583 C 121.276 44.042,121.352 45.129,121.417 46.000 C 121.598 48.437,121.739 50.961,121.920 55.000 C 122.319 63.920,122.313 84.590,121.910 91.083 C 121.876 91.633,121.810 92.683,121.763 93.417 C 121.716 94.150,121.634 95.612,121.581 96.667 C 121.527 97.721,121.448 98.687,121.406 98.813 C 121.363 98.939,121.423 99.157,121.539 99.297 C 121.655 99.437,121.731 99.596,121.708 99.651 C 121.685 99.705,121.742 99.759,121.833 99.771 C 121.925 99.782,122.019 99.807,122.042 99.825 C 122.516 100.207,135.866 100.164,136.613 99.778 C 137.130 99.510,137.696 98.396,137.944 97.157 C 138.022 96.763,138.500 96.517,138.500 96.871 C 138.500 96.953,138.571 96.976,138.658 96.922 C 138.745 96.868,138.901 96.983,139.005 97.176 C 139.109 97.370,139.237 97.485,139.290 97.432 C 139.343 97.379,139.492 97.486,139.621 97.671 C 139.751 97.855,139.918 97.967,139.994 97.920 C 140.070 97.874,140.177 97.952,140.231 98.095 C 140.286 98.238,140.407 98.308,140.499 98.251 C 140.591 98.194,140.667 98.214,140.667 98.297 C 140.667 98.458,141.501 98.911,141.708 98.862 C 141.777 98.846,141.833 98.913,141.833 99.010 C 141.833 99.107,141.903 99.143,141.988 99.090 C 142.074 99.038,142.191 99.072,142.250 99.167 C 142.309 99.261,142.426 99.296,142.512 99.243 C 142.597 99.190,142.667 99.217,142.667 99.302 C 142.667 99.457,143.850 99.845,144.546 99.918 C 144.750 99.940,144.917 99.974,144.917 99.995 C 144.917 100.211,149.202 100.513,150.667 100.402 C 152.650 100.250,152.453 100.284,154.333 99.768 C 156.393 99.203,156.410 99.198,156.458 99.159 C 156.481 99.140,156.556 99.114,156.625 99.100 C 156.981 99.029,159.247 97.792,160.180 97.158 C 161.408 96.326,164.500 93.283,164.500 92.908 C 164.500 92.835,165.534 91.297,165.671 91.167 C 165.771 91.071,167.020 88.499,167.330 87.750 C 167.663 86.945,168.280 84.813,168.415 84.000 C 168.483 83.587,168.571 83.100,168.609 82.917 C 168.907 81.495,168.992 77.216,168.761 75.250 C 168.528 73.261,168.409 72.618,168.002 71.167 C 167.482 69.313,166.663 67.185,166.134 66.315 C 165.877 65.892,165.667 65.461,165.667 65.357 C 165.667 65.252,165.592 65.167,165.500 65.167 C 165.408 65.167,165.333 65.070,165.333 64.952 C 165.333 64.834,165.035 64.403,164.671 63.994 C 164.307 63.585,164.007 63.194,164.005 63.126 C 163.994 62.856,161.461 60.500,161.182 60.500 C 161.082 60.500,161.000 60.429,161.000 60.341 C 161.000 60.254,160.737 60.058,160.417 59.905 C 160.096 59.753,159.833 59.562,159.833 59.481 C 159.833 59.400,159.726 59.333,159.595 59.333 C 159.464 59.333,159.258 59.235,159.137 59.116 C 158.917 58.898,158.490 58.692,158.333 58.728 C 158.287 58.739,157.894 58.538,157.458 58.283 C 157.023 58.028,156.667 57.859,156.667 57.907 C 156.667 57.956,156.263 57.844,155.769 57.659 C 153.428 56.784,145.862 56.323,145.042 57.007 C 145.019 57.026,144.925 57.060,144.833 57.083 C 144.742 57.106,144.629 57.144,144.583 57.167 C 144.537 57.190,144.425 57.227,144.333 57.250 C 144.242 57.273,144.129 57.310,144.083 57.333 C 144.037 57.356,143.925 57.394,143.833 57.417 C 143.742 57.440,143.629 57.477,143.583 57.500 C 143.537 57.523,143.441 57.551,143.368 57.563 C 143.131 57.600,141.586 58.413,141.481 58.556 C 141.425 58.632,141.336 58.670,141.282 58.639 C 141.180 58.580,140.485 59.107,139.652 59.875 C 139.379 60.127,139.083 60.333,138.994 60.333 C 138.906 60.333,138.833 60.413,138.833 60.510 C 138.833 60.607,138.764 60.643,138.678 60.590 C 138.593 60.538,138.478 60.568,138.423 60.657 C 138.295 60.863,137.897 60.717,137.863 60.451 C 137.667 58.957,137.895 49.180,138.251 43.833 C 138.455 40.754,138.440 38.915,138.205 38.339 L 137.991 37.813 134.988 37.859 C 133.336 37.884,131.963 37.926,131.937 37.952 M190.119 55.270 C 190.070 55.319,189.742 55.393,189.390 55.435 C 188.439 55.548,188.265 55.586,188.028 55.733 C 187.909 55.807,187.767 55.822,187.713 55.768 C 187.658 55.714,187.512 55.755,187.386 55.859 C 187.261 55.962,187.111 56.000,187.053 55.942 C 186.995 55.884,186.847 55.920,186.724 56.022 C 186.601 56.124,186.500 56.152,186.500 56.083 C 186.500 56.015,186.387 56.053,186.250 56.167 C 186.112 56.281,186.000 56.318,186.000 56.250 C 186.000 56.182,185.887 56.219,185.750 56.333 C 185.612 56.447,185.500 56.485,185.500 56.417 C 185.500 56.348,185.387 56.386,185.250 56.500 C 185.112 56.614,185.000 56.658,185.000 56.598 C 185.000 56.538,184.831 56.582,184.625 56.696 C 184.419 56.811,184.194 56.888,184.125 56.869 C 184.056 56.849,184.000 56.908,184.000 57.000 C 184.000 57.092,183.943 57.148,183.874 57.125 C 183.682 57.062,182.000 57.892,182.000 58.049 C 182.000 58.125,181.925 58.140,181.833 58.083 C 181.742 58.027,181.667 58.060,181.667 58.157 C 181.667 58.254,181.589 58.333,181.493 58.333 C 181.398 58.333,181.161 58.481,180.968 58.661 C 180.774 58.841,180.560 58.954,180.492 58.912 C 180.424 58.870,180.325 58.947,180.273 59.084 C 180.220 59.221,180.070 59.333,179.940 59.333 C 179.809 59.333,179.659 59.446,179.606 59.583 C 179.554 59.721,179.436 59.833,179.344 59.833 C 179.034 59.833,176.876 61.875,175.667 63.313 C 175.254 63.803,174.823 64.303,174.708 64.424 C 174.594 64.544,174.500 64.705,174.500 64.781 C 174.500 64.858,174.321 65.113,174.102 65.350 C 173.882 65.586,173.572 66.035,173.412 66.348 C 173.251 66.661,173.070 66.954,173.009 67.000 C 172.551 67.344,170.943 71.411,170.737 72.750 C 170.680 73.117,170.607 73.460,170.575 73.513 C 170.399 73.800,170.252 76.054,170.265 78.250 C 170.279 80.556,170.328 81.206,170.592 82.583 C 170.645 82.858,170.714 83.233,170.747 83.417 C 170.779 83.600,170.821 83.769,170.840 83.792 C 170.859 83.815,170.894 83.908,170.917 84.000 C 170.940 84.092,170.977 84.185,171.000 84.208 C 171.024 84.231,171.060 84.412,171.081 84.610 C 171.102 84.809,171.179 85.109,171.252 85.277 C 171.324 85.445,171.412 85.730,171.446 85.909 C 171.480 86.089,171.600 86.294,171.713 86.365 C 171.825 86.437,171.851 86.496,171.771 86.497 C 171.691 86.499,171.704 86.594,171.799 86.708 C 171.894 86.823,171.974 86.975,171.977 87.046 C 171.990 87.327,173.237 89.833,173.364 89.833 C 173.439 89.833,173.500 89.948,173.500 90.089 C 173.500 90.229,173.612 90.387,173.749 90.439 C 173.886 90.492,173.965 90.589,173.924 90.656 C 173.883 90.722,174.062 91.010,174.323 91.295 C 174.584 91.581,174.765 91.847,174.725 91.886 C 174.685 91.926,174.864 92.137,175.123 92.354 C 175.382 92.572,175.612 92.825,175.634 92.917 C 175.701 93.189,177.881 95.323,178.011 95.243 C 178.077 95.203,178.254 95.359,178.406 95.590 C 178.557 95.821,178.749 95.969,178.832 95.917 C 178.915 95.866,179.065 95.976,179.164 96.162 C 179.264 96.348,179.455 96.500,179.589 96.500 C 179.723 96.500,179.833 96.575,179.833 96.667 C 179.833 96.758,179.946 96.833,180.083 96.833 C 180.221 96.833,180.333 96.913,180.333 97.010 C 180.333 97.107,180.400 97.145,180.483 97.094 C 180.565 97.043,180.677 97.119,180.731 97.262 C 180.786 97.404,180.899 97.479,180.981 97.428 C 181.064 97.377,181.177 97.452,181.231 97.595 C 181.286 97.738,181.407 97.808,181.499 97.751 C 181.591 97.694,181.667 97.731,181.667 97.833 C 181.667 97.936,181.742 97.973,181.833 97.917 C 181.925 97.860,182.000 97.898,182.000 98.000 C 182.000 98.102,182.075 98.140,182.167 98.083 C 182.258 98.027,182.333 98.048,182.333 98.132 C 182.333 98.289,183.687 98.958,183.809 98.861 C 183.848 98.830,183.925 98.879,183.981 98.969 C 184.037 99.059,184.233 99.160,184.417 99.192 C 184.600 99.224,184.791 99.304,184.841 99.371 C 184.890 99.437,185.078 99.520,185.257 99.554 C 185.437 99.588,185.787 99.699,186.035 99.801 C 186.284 99.903,186.659 100.016,186.869 100.051 C 187.078 100.086,187.362 100.158,187.500 100.210 C 189.339 100.905,194.317 100.884,197.500 100.167 C 198.371 99.971,199.158 99.795,199.250 99.776 C 199.342 99.756,199.492 99.696,199.583 99.642 C 199.839 99.491,200.906 99.163,201.000 99.207 C 201.046 99.228,201.353 99.079,201.683 98.875 C 202.012 98.671,202.331 98.553,202.391 98.613 C 202.451 98.673,202.500 98.646,202.500 98.553 C 202.500 98.460,202.819 98.243,203.208 98.070 C 203.598 97.897,204.016 97.661,204.137 97.545 C 204.258 97.428,204.458 97.333,204.581 97.333 C 204.705 97.333,204.831 97.276,204.861 97.205 C 204.892 97.135,205.404 96.731,206.000 96.309 C 207.891 94.968,212.167 90.260,212.167 89.520 C 212.167 89.430,212.260 89.258,212.375 89.137 C 213.792 87.639,215.938 80.064,214.987 79.913 C 214.486 79.833,212.745 79.637,212.000 79.576 C 211.588 79.542,210.838 79.471,210.333 79.417 C 209.829 79.364,209.023 79.285,208.542 79.243 C 208.060 79.201,207.273 79.130,206.792 79.084 C 202.162 78.648,200.836 78.644,200.821 79.070 C 200.805 79.504,200.771 79.669,200.437 80.974 C 200.098 82.295,199.349 83.698,198.866 83.915 C 198.665 84.005,198.500 84.136,198.500 84.206 C 198.500 84.276,198.387 84.333,198.250 84.333 C 198.112 84.333,198.000 84.421,198.000 84.528 C 198.000 84.635,197.951 84.673,197.890 84.613 C 197.830 84.552,197.684 84.583,197.565 84.682 C 197.009 85.143,194.332 85.238,193.045 84.842 C 191.912 84.494,190.500 83.823,190.500 83.633 C 190.500 83.560,190.387 83.500,190.250 83.500 C 190.112 83.500,190.000 83.425,190.000 83.333 C 190.000 83.242,189.913 83.167,189.806 83.167 C 189.597 83.167,189.401 83.010,188.521 82.139 C 187.528 81.156,187.167 80.727,187.167 80.528 C 187.167 80.421,187.090 80.333,186.996 80.333 C 186.902 80.333,186.750 80.165,186.658 79.958 C 186.567 79.752,186.309 79.333,186.085 79.026 C 184.259 76.521,184.590 72.438,186.777 70.510 C 188.327 69.143,188.693 69.054,191.458 69.365 C 191.573 69.378,191.667 69.443,191.667 69.508 C 191.667 69.630,192.315 69.884,192.542 69.851 C 192.610 69.841,192.667 69.913,192.667 70.010 C 192.667 70.107,192.734 70.145,192.816 70.094 C 192.898 70.043,193.004 70.103,193.051 70.226 C 193.103 70.360,192.041 71.545,190.405 73.178 C 188.341 75.239,187.689 75.989,187.738 76.245 C 187.844 76.792,188.025 77.167,188.184 77.167 C 188.266 77.167,188.333 77.265,188.333 77.385 C 188.333 77.505,188.502 77.785,188.708 78.007 C 188.915 78.229,189.065 78.466,189.043 78.534 C 189.021 78.603,189.224 78.822,189.495 79.023 C 189.765 79.223,189.941 79.461,189.884 79.552 C 189.828 79.644,189.864 79.668,189.964 79.606 C 190.065 79.543,190.384 79.790,190.680 80.158 C 190.974 80.524,191.279 80.784,191.357 80.735 C 191.436 80.687,191.500 80.731,191.500 80.833 C 191.500 80.936,191.567 80.978,191.649 80.927 C 191.731 80.877,191.843 80.952,191.898 81.095 C 191.953 81.238,192.073 81.308,192.165 81.251 C 192.258 81.194,192.333 81.231,192.333 81.333 C 192.333 81.436,192.408 81.473,192.500 81.417 C 192.592 81.360,192.667 81.385,192.667 81.473 C 192.667 82.420,209.946 65.720,210.252 64.476 C 210.407 63.848,210.006 63.180,208.904 62.230 C 208.386 61.783,207.712 61.173,207.408 60.875 C 207.104 60.577,206.776 60.333,206.679 60.333 C 206.582 60.333,206.409 60.183,206.295 60.000 C 206.180 59.817,205.990 59.667,205.871 59.667 C 205.753 59.667,205.613 59.554,205.560 59.417 C 205.508 59.279,205.360 59.167,205.232 59.167 C 205.104 59.167,205.000 59.092,205.000 59.000 C 205.000 58.908,204.906 58.833,204.792 58.833 C 204.677 58.833,204.365 58.646,204.099 58.416 C 203.833 58.187,203.514 58.000,203.391 58.000 C 203.268 58.000,203.167 57.921,203.167 57.823 C 203.167 57.726,203.092 57.693,203.000 57.750 C 202.908 57.807,202.833 57.769,202.833 57.667 C 202.833 57.564,202.758 57.527,202.667 57.583 C 202.575 57.640,202.500 57.613,202.500 57.523 C 202.500 57.433,202.219 57.268,201.875 57.158 C 201.531 57.047,201.100 56.876,200.917 56.778 C 200.733 56.680,200.508 56.580,200.417 56.555 C 200.325 56.531,199.531 56.290,198.651 56.020 C 197.772 55.750,196.797 55.476,196.485 55.413 C 195.789 55.271,190.242 55.147,190.119 55.270 M288.494 55.723 C 288.445 55.775,287.920 55.863,287.327 55.920 C 286.735 55.976,286.063 56.054,285.833 56.092 C 284.838 56.260,284.578 56.308,284.500 56.339 C 284.454 56.358,284.353 56.361,284.274 56.347 C 284.196 56.333,284.035 56.402,283.917 56.500 C 283.798 56.598,283.638 56.667,283.559 56.653 C 283.481 56.639,283.360 56.645,283.292 56.668 C 283.223 56.690,283.092 56.727,283.000 56.750 C 282.908 56.773,282.796 56.810,282.750 56.833 C 282.704 56.856,282.592 56.894,282.500 56.917 C 282.408 56.940,282.296 56.977,282.250 57.000 C 282.204 57.023,282.110 57.054,282.042 57.068 C 281.973 57.083,281.748 57.189,281.542 57.303 C 281.335 57.418,281.167 57.462,281.167 57.402 C 281.167 57.342,281.066 57.376,280.943 57.478 C 280.820 57.580,280.670 57.614,280.610 57.554 C 280.549 57.494,280.500 57.536,280.500 57.649 C 280.500 57.761,280.425 57.807,280.333 57.750 C 280.242 57.693,280.167 57.731,280.167 57.833 C 280.167 57.936,280.092 57.973,280.000 57.917 C 279.908 57.860,279.833 57.898,279.833 58.000 C 279.833 58.102,279.764 58.144,279.680 58.092 C 279.596 58.040,279.417 58.107,279.283 58.241 C 279.149 58.375,278.993 58.438,278.937 58.381 C 278.880 58.324,278.833 58.365,278.833 58.472 C 278.833 58.579,278.732 58.667,278.609 58.667 C 278.486 58.667,278.172 58.850,277.911 59.074 C 277.651 59.298,277.384 59.448,277.320 59.408 C 277.255 59.368,277.159 59.447,277.106 59.584 C 277.053 59.721,276.904 59.833,276.773 59.833 C 276.642 59.833,276.492 59.946,276.440 60.083 C 276.387 60.221,276.263 60.333,276.164 60.333 C 275.789 60.333,272.500 63.919,272.500 64.327 C 272.500 64.428,272.387 64.554,272.250 64.606 C 272.112 64.659,272.000 64.801,272.000 64.921 C 272.000 65.041,271.944 65.164,271.875 65.194 C 271.357 65.425,269.201 70.301,268.941 71.833 C 268.902 72.063,268.793 72.550,268.699 72.917 C 268.342 74.308,268.257 75.525,268.277 79.000 C 268.295 82.252,268.339 83.021,268.579 84.333 C 268.621 84.563,268.702 85.006,268.758 85.318 C 268.815 85.631,268.942 86.081,269.040 86.318 C 269.138 86.556,269.245 86.894,269.279 87.070 C 269.312 87.246,269.413 87.478,269.502 87.586 C 269.591 87.693,269.614 87.830,269.554 87.890 C 269.494 87.951,269.532 88.000,269.639 88.000 C 269.746 88.000,269.821 88.056,269.807 88.125 C 269.771 88.295,269.953 88.776,270.386 89.653 C 270.973 90.840,271.072 91.000,271.216 91.000 C 271.291 91.000,271.307 91.075,271.250 91.167 C 271.193 91.258,271.226 91.333,271.323 91.333 C 271.421 91.333,271.500 91.448,271.500 91.589 C 271.500 91.729,271.612 91.887,271.749 91.939 C 271.886 91.992,271.964 92.090,271.922 92.158 C 271.880 92.226,272.105 92.565,272.423 92.912 C 272.740 93.258,273.000 93.589,273.000 93.646 C 273.001 93.809,275.008 95.750,275.177 95.750 C 275.259 95.750,275.446 95.920,275.592 96.128 C 275.737 96.336,275.923 96.464,276.004 96.414 C 276.085 96.364,276.276 96.512,276.428 96.743 C 276.579 96.975,276.770 97.123,276.852 97.072 C 276.933 97.022,277.000 97.060,277.000 97.157 C 277.000 97.254,277.112 97.333,277.250 97.333 C 277.387 97.333,277.500 97.413,277.500 97.510 C 277.500 97.607,277.567 97.645,277.649 97.594 C 277.731 97.543,277.843 97.619,277.898 97.762 C 277.953 97.904,278.073 97.974,278.165 97.917 C 278.258 97.860,278.333 97.893,278.333 97.990 C 278.333 98.087,278.407 98.167,278.497 98.167 C 278.588 98.167,279.020 98.387,279.457 98.656 C 279.895 98.925,280.465 99.184,280.724 99.231 C 280.983 99.278,281.302 99.404,281.431 99.512 C 281.561 99.620,281.667 99.652,281.667 99.583 C 281.667 99.515,281.766 99.542,281.888 99.643 C 282.010 99.744,282.254 99.854,282.430 99.888 C 282.606 99.922,282.862 99.998,283.000 100.056 C 283.137 100.115,283.438 100.196,283.667 100.236 C 283.896 100.276,284.083 100.320,284.083 100.334 C 284.083 100.362,284.352 100.425,285.083 100.566 C 285.358 100.620,285.771 100.702,286.000 100.750 C 289.314 101.444,297.244 101.025,299.875 100.017 C 300.127 99.921,300.333 99.886,300.333 99.941 C 300.333 99.996,300.446 99.947,300.583 99.833 C 300.721 99.719,300.833 99.682,300.833 99.750 C 300.833 99.818,300.946 99.781,301.083 99.667 C 301.221 99.553,301.333 99.512,301.333 99.577 C 301.333 99.641,301.577 99.543,301.875 99.359 C 302.173 99.175,302.454 99.033,302.500 99.043 C 302.661 99.078,304.000 98.434,304.000 98.321 C 304.000 98.259,304.244 98.109,304.542 97.988 C 304.840 97.868,305.121 97.724,305.167 97.670 C 305.212 97.616,305.794 97.152,306.459 96.641 C 309.046 94.649,309.038 94.047,306.358 89.380 C 305.978 88.718,305.667 88.134,305.667 88.081 C 305.667 87.499,303.366 84.862,302.917 84.929 C 302.552 84.984,301.667 85.414,301.667 85.537 C 301.667 85.608,301.589 85.667,301.493 85.667 C 301.398 85.667,301.161 85.814,300.968 85.994 C 300.774 86.174,300.553 86.282,300.475 86.234 C 300.397 86.186,300.333 86.211,300.333 86.289 C 300.333 86.444,298.328 87.424,298.125 87.368 C 298.056 87.349,298.000 87.421,298.000 87.528 C 298.000 87.635,297.953 87.675,297.895 87.617 C 297.837 87.559,297.631 87.600,297.436 87.708 C 297.242 87.816,297.027 87.917,296.958 87.932 C 296.890 87.946,296.796 87.977,296.750 88.000 C 296.704 88.023,296.592 88.060,296.500 88.083 C 296.408 88.106,296.315 88.140,296.292 88.159 C 296.249 88.193,296.054 88.244,295.333 88.409 C 293.322 88.871,289.654 88.770,288.333 88.217 C 288.196 88.159,288.027 88.096,287.958 88.077 C 287.890 88.058,287.796 88.023,287.750 88.000 C 287.704 87.977,287.610 87.949,287.540 87.938 C 287.170 87.877,285.833 87.246,285.833 87.132 C 285.833 87.060,285.721 87.000,285.583 87.000 C 285.446 87.000,285.333 86.925,285.333 86.833 C 285.333 86.742,285.227 86.667,285.097 86.667 C 284.841 86.667,283.833 85.485,283.833 85.184 C 283.833 85.083,283.763 85.000,283.678 85.000 C 283.543 85.000,283.282 84.465,283.258 84.139 C 283.254 84.078,283.194 83.972,283.125 83.903 C 282.772 83.549,283.063 83.406,284.125 83.411 C 285.076 83.415,287.482 83.264,289.417 83.079 C 289.692 83.053,290.479 82.984,291.167 82.926 C 291.854 82.868,292.792 82.786,293.250 82.744 C 294.857 82.597,296.091 82.488,296.917 82.420 C 298.046 82.327,299.955 82.153,300.667 82.079 C 301.508 81.991,303.084 81.846,304.333 81.740 C 306.100 81.591,306.384 81.544,307.083 81.285 C 308.157 80.887,308.667 80.623,308.667 80.466 C 308.667 80.386,308.818 80.116,309.002 79.866 C 309.186 79.617,309.378 79.226,309.427 78.998 C 309.477 78.770,309.562 78.396,309.618 78.167 C 309.751 77.617,309.741 74.804,309.602 73.750 C 309.407 72.271,309.374 72.099,309.089 71.083 C 308.410 68.668,307.043 65.474,306.485 65.000 C 306.431 64.954,306.127 64.535,305.809 64.069 C 305.129 63.074,301.680 59.667,301.352 59.667 C 301.277 59.667,301.013 59.479,300.766 59.250 C 300.518 59.021,300.245 58.833,300.158 58.833 C 300.071 58.833,300.000 58.776,300.000 58.706 C 300.000 58.636,299.681 58.441,299.292 58.272 C 298.902 58.104,298.538 57.893,298.483 57.805 C 298.428 57.717,298.278 57.627,298.150 57.606 C 298.022 57.585,297.748 57.475,297.542 57.361 C 297.335 57.248,297.167 57.204,297.167 57.265 C 297.167 57.325,297.073 57.301,296.958 57.213 C 296.589 56.926,293.772 56.147,292.333 55.933 C 291.267 55.774,288.585 55.628,288.494 55.723 M73.113 56.943 C 73.074 56.982,72.752 57.052,72.396 57.098 C 71.365 57.234,71.256 57.258,71.028 57.400 C 70.909 57.473,70.767 57.489,70.713 57.435 C 70.658 57.381,70.521 57.413,70.408 57.507 C 70.295 57.601,70.138 57.660,70.059 57.637 C 69.981 57.614,69.748 57.689,69.542 57.804 C 69.335 57.918,69.167 57.969,69.167 57.917 C 69.167 57.864,68.998 57.915,68.792 58.030 C 68.585 58.144,68.379 58.243,68.333 58.249 C 68.035 58.289,66.833 58.924,66.833 59.042 C 66.833 59.121,66.758 59.140,66.667 59.083 C 66.575 59.027,66.500 59.064,66.500 59.167 C 66.500 59.269,66.425 59.307,66.333 59.250 C 66.242 59.193,66.167 59.226,66.167 59.323 C 66.167 59.421,66.054 59.500,65.917 59.500 C 65.779 59.500,65.667 59.575,65.667 59.667 C 65.667 59.758,65.554 59.833,65.417 59.833 C 65.279 59.833,65.167 59.900,65.167 59.981 C 65.167 60.062,64.923 60.245,64.625 60.387 C 64.327 60.529,63.918 60.800,63.715 60.989 C 63.513 61.178,63.277 61.333,63.191 61.333 C 63.106 61.333,62.992 61.446,62.940 61.583 C 62.887 61.721,62.729 61.833,62.589 61.833 C 62.448 61.833,62.333 61.896,62.333 61.972 C 62.333 62.048,62.127 62.217,61.875 62.347 C 61.623 62.477,61.318 62.677,61.196 62.792 C 60.849 63.120,60.668 63.038,60.645 62.542 C 60.458 58.601,60.220 57.513,59.535 57.475 C 58.647 57.427,56.750 57.565,56.750 57.678 C 56.750 57.695,56.600 57.733,56.417 57.763 C 56.025 57.826,55.452 57.958,55.333 58.013 C 55.288 58.034,55.175 58.068,55.083 58.089 C 54.992 58.111,54.879 58.143,54.833 58.161 C 54.788 58.180,54.600 58.223,54.417 58.258 C 54.233 58.292,53.877 58.363,53.625 58.414 C 52.188 58.709,51.826 58.769,50.583 58.922 C 49.807 59.017,47.399 59.191,46.924 59.186 C 46.745 59.184,46.505 59.260,46.390 59.355 C 46.275 59.451,46.108 59.484,46.019 59.428 C 45.929 59.373,45.809 59.405,45.750 59.500 C 45.691 59.595,45.574 59.629,45.488 59.576 C 45.403 59.523,45.333 59.572,45.333 59.685 C 45.333 59.797,45.286 59.841,45.228 59.783 C 44.802 59.358,44.473 60.556,44.584 62.129 C 44.718 64.026,44.768 64.593,44.908 65.833 C 44.965 66.337,45.050 67.237,45.096 67.833 C 45.143 68.429,45.223 69.292,45.274 69.750 C 45.326 70.208,45.393 76.734,45.425 84.251 C 45.491 99.730,45.490 99.714,45.972 99.761 C 46.033 99.767,46.357 99.852,46.692 99.951 C 47.194 100.099,50.947 100.205,57.000 100.241 C 57.884 100.247,59.178 100.112,60.277 99.901 C 61.090 99.745,61.083 99.850,61.083 86.917 C 61.083 77.287,61.129 74.597,61.304 74.018 C 61.708 72.683,63.261 71.416,65.596 70.514 C 66.495 70.168,68.111 70.221,69.167 70.631 C 69.396 70.720,69.652 70.796,69.735 70.798 C 69.818 70.801,69.954 70.924,70.037 71.072 C 70.120 71.220,70.269 71.290,70.369 71.228 C 70.471 71.165,70.504 71.191,70.444 71.289 C 70.385 71.384,70.456 71.561,70.603 71.683 C 70.874 71.908,71.242 72.650,71.194 72.875 C 71.179 72.944,71.250 73.000,71.351 73.000 C 71.453 73.000,71.493 73.110,71.442 73.245 C 71.390 73.379,71.415 73.531,71.497 73.581 C 71.579 73.632,71.648 73.803,71.651 73.962 C 71.654 74.120,71.698 74.550,71.748 74.917 C 71.798 75.283,71.858 80.926,71.883 87.455 C 71.916 96.524,71.975 99.375,72.130 99.530 C 72.242 99.642,72.333 99.675,72.333 99.605 C 72.333 99.534,72.451 99.594,72.595 99.738 C 72.910 100.053,85.426 100.135,86.525 99.829 C 87.655 99.515,87.604 100.128,87.555 87.500 C 87.501 73.566,87.441 74.024,89.583 72.030 C 91.180 70.543,92.698 70.031,94.500 70.371 C 95.004 70.466,95.510 70.547,95.625 70.550 C 95.740 70.553,95.833 70.622,95.833 70.704 C 95.833 70.786,95.908 70.807,96.000 70.750 C 96.092 70.693,96.167 70.739,96.167 70.851 C 96.167 70.964,96.209 71.014,96.260 70.962 C 96.375 70.847,97.260 71.701,97.206 71.875 C 97.184 71.944,97.233 72.000,97.313 72.000 C 97.443 72.000,97.849 72.803,97.945 73.250 C 97.964 73.342,98.025 73.604,98.079 73.833 C 98.363 75.027,98.481 86.981,98.285 94.537 C 98.222 96.980,98.243 98.527,98.341 98.588 C 98.429 98.642,98.500 98.800,98.500 98.938 C 98.500 99.195,98.998 99.804,99.003 99.554 C 99.004 99.478,99.062 99.506,99.131 99.615 C 99.398 100.034,110.002 100.341,112.012 99.987 C 113.195 99.779,113.212 99.773,113.661 99.374 L 114.083 98.997 114.083 95.374 C 114.082 71.924,113.998 66.102,113.643 64.917 C 113.246 63.595,112.629 62.136,112.303 61.750 C 111.574 60.886,110.834 60.167,110.675 60.167 C 110.573 60.167,110.446 60.054,110.394 59.917 C 110.341 59.779,110.229 59.667,110.145 59.667 C 109.973 59.667,108.635 58.824,108.488 58.623 C 108.435 58.551,108.221 58.459,108.012 58.419 C 107.804 58.379,107.535 58.265,107.417 58.167 C 107.298 58.068,107.062 57.953,106.892 57.910 C 106.722 57.867,106.021 57.673,105.333 57.479 C 104.024 57.109,99.630 56.962,98.083 57.237 C 97.717 57.302,97.267 57.382,97.083 57.414 C 96.900 57.446,96.750 57.484,96.750 57.499 C 96.750 57.514,96.619 57.557,96.458 57.596 C 96.298 57.635,96.035 57.698,95.875 57.737 C 95.715 57.776,95.565 57.823,95.542 57.841 C 95.519 57.860,95.444 57.887,95.375 57.902 C 95.306 57.916,95.063 58.032,94.833 58.159 C 94.604 58.286,94.396 58.373,94.371 58.353 C 94.286 58.285,92.085 59.404,91.961 59.578 C 91.894 59.673,91.837 59.688,91.836 59.613 C 91.834 59.538,91.715 59.594,91.571 59.738 C 91.427 59.882,91.202 60.000,91.071 60.000 C 90.940 60.000,90.833 60.075,90.833 60.167 C 90.833 60.258,90.721 60.333,90.583 60.333 C 90.446 60.333,90.333 60.411,90.333 60.505 C 90.333 60.600,90.216 60.722,90.073 60.777 C 89.662 60.935,88.975 61.525,87.001 63.417 C 86.619 63.783,86.329 63.971,86.359 63.833 C 86.428 63.507,86.009 62.503,85.633 62.096 C 85.470 61.919,85.293 61.657,85.239 61.512 C 85.159 61.300,83.598 59.853,82.619 59.083 C 81.910 58.526,79.100 57.421,77.553 57.091 C 76.944 56.962,73.218 56.837,73.113 56.943 M289.235 67.365 C 289.572 67.378,289.887 67.452,289.935 67.530 C 289.984 67.608,290.093 67.629,290.178 67.576 C 290.264 67.523,290.333 67.564,290.333 67.667 C 290.333 67.769,290.408 67.807,290.500 67.750 C 290.592 67.693,290.667 67.731,290.667 67.833 C 290.667 67.936,290.742 67.973,290.833 67.917 C 290.925 67.860,291.000 67.893,291.000 67.990 C 291.000 68.087,291.079 68.167,291.175 68.167 C 291.271 68.167,291.539 68.373,291.771 68.625 C 292.004 68.877,292.146 68.990,292.087 68.875 C 291.917 68.543,292.076 68.631,292.513 69.110 C 292.735 69.354,292.806 69.490,292.672 69.411 C 292.537 69.333,292.687 69.582,293.005 69.964 C 293.323 70.347,293.644 70.662,293.718 70.664 C 293.792 70.665,293.807 70.742,293.750 70.833 C 293.693 70.925,293.731 71.000,293.833 71.000 C 293.936 71.000,293.977 71.070,293.924 71.155 C 293.871 71.240,293.905 71.358,294.000 71.417 C 294.095 71.475,294.132 71.588,294.083 71.667 C 294.035 71.746,294.055 71.848,294.128 71.893 C 294.202 71.938,294.280 72.437,294.303 73.001 C 294.329 73.670,294.284 73.989,294.172 73.920 C 294.077 73.861,294.000 73.906,294.000 74.018 C 294.000 74.130,293.953 74.175,293.895 74.117 C 293.837 74.059,293.632 74.096,293.440 74.199 C 293.248 74.302,292.826 74.414,292.504 74.448 C 292.181 74.482,291.654 74.540,291.333 74.578 C 291.012 74.615,290.300 74.693,289.750 74.750 C 289.200 74.808,288.450 74.889,288.083 74.930 C 285.926 75.174,282.618 75.134,282.337 74.861 C 281.938 74.473,282.007 72.825,282.466 71.787 C 282.658 71.354,282.780 71.000,282.739 71.000 C 282.543 71.000,283.618 69.509,284.256 68.897 C 285.379 67.818,287.344 67.042,288.353 67.279 C 288.501 67.313,288.898 67.352,289.235 67.365 M146.443 70.072 C 146.612 70.105,147.089 70.225,147.501 70.339 C 147.913 70.453,148.344 70.548,148.458 70.551 C 148.573 70.553,148.667 70.622,148.667 70.704 C 148.667 70.786,148.742 70.807,148.833 70.750 C 148.925 70.693,149.000 70.731,149.000 70.833 C 149.000 70.936,149.067 70.978,149.149 70.927 C 149.231 70.877,149.346 70.958,149.403 71.108 C 149.461 71.258,149.554 71.335,149.609 71.280 C 149.665 71.224,149.857 71.364,150.035 71.591 C 150.214 71.818,150.441 71.953,150.539 71.893 C 150.642 71.829,150.670 71.860,150.604 71.966 C 150.542 72.067,150.643 72.231,150.829 72.331 C 151.015 72.430,151.167 72.612,151.167 72.735 C 151.167 72.859,151.285 73.057,151.430 73.177 C 151.725 73.423,152.564 75.000,152.399 75.000 C 152.340 75.000,152.366 75.094,152.457 75.208 C 152.547 75.323,152.623 75.529,152.625 75.667 C 152.627 75.804,152.706 76.244,152.801 76.643 C 152.968 77.350,152.948 79.395,152.763 80.430 C 152.567 81.532,151.580 83.833,151.304 83.833 C 151.228 83.833,151.165 83.927,151.163 84.042 C 151.161 84.156,150.891 84.475,150.563 84.750 C 150.235 85.025,149.867 85.344,149.745 85.458 C 149.623 85.573,149.443 85.667,149.345 85.667 C 149.247 85.667,149.167 85.733,149.167 85.814 C 149.167 85.895,149.035 85.995,148.875 86.037 C 148.715 86.079,148.508 86.133,148.417 86.157 C 148.325 86.180,148.100 86.284,147.917 86.388 C 147.206 86.791,143.992 86.831,142.730 86.453 C 137.886 85.003,135.960 78.728,138.720 73.392 C 139.081 72.693,140.484 71.167,140.765 71.167 C 140.894 71.167,141.000 71.106,141.000 71.031 C 141.000 70.956,141.281 70.761,141.625 70.597 C 143.018 69.932,144.741 69.745,146.443 70.072 M240.917 70.055 C 241.100 70.083,241.475 70.200,241.750 70.316 C 242.025 70.431,242.381 70.536,242.542 70.548 C 242.702 70.561,242.833 70.634,242.833 70.712 C 242.833 70.790,242.900 70.812,242.983 70.761 C 243.065 70.710,243.177 70.785,243.231 70.928 C 243.286 71.071,243.399 71.146,243.481 71.095 C 243.564 71.044,243.675 71.115,243.728 71.253 C 243.781 71.390,243.885 71.484,243.958 71.460 C 244.032 71.436,244.498 71.867,244.992 72.417 C 245.487 72.967,245.973 73.472,246.071 73.539 C 246.169 73.606,246.193 73.663,246.123 73.664 C 246.053 73.666,246.190 73.960,246.427 74.319 C 246.664 74.678,246.885 75.109,246.917 75.277 C 246.948 75.446,246.986 75.583,247.000 75.583 C 247.025 75.583,247.072 75.773,247.270 76.667 C 247.592 78.123,247.313 80.373,246.606 82.020 C 246.177 83.018,244.086 85.500,243.673 85.500 C 243.578 85.500,243.500 85.557,243.500 85.626 C 243.500 85.737,242.628 86.199,242.292 86.267 C 242.223 86.280,242.129 86.310,242.083 86.333 C 242.037 86.356,241.944 86.391,241.875 86.410 C 241.806 86.430,241.637 86.489,241.500 86.542 C 241.221 86.650,241.265 86.647,239.412 86.683 C 238.004 86.711,237.056 86.574,236.708 86.294 C 236.594 86.201,236.500 86.174,236.500 86.234 C 236.500 86.293,236.294 86.233,236.042 86.099 C 235.438 85.780,233.667 84.111,233.667 83.862 C 233.667 83.754,233.590 83.667,233.497 83.667 C 233.404 83.667,233.198 83.385,233.039 83.042 C 232.880 82.698,232.701 82.379,232.641 82.333 C 231.490 81.455,231.651 76.582,232.916 73.951 C 233.635 72.457,236.500 69.644,236.500 70.433 C 236.500 70.492,236.624 70.438,236.776 70.312 C 236.927 70.186,237.096 70.093,237.151 70.104 C 237.205 70.115,237.325 70.099,237.417 70.069 C 237.882 69.913,239.940 69.905,240.917 70.055 M337.667 70.256 C 338.262 70.420,338.956 70.697,339.208 70.872 C 339.460 71.047,339.669 71.128,339.672 71.053 C 339.675 70.978,339.791 71.067,339.929 71.250 C 340.068 71.433,340.234 71.586,340.299 71.589 C 340.463 71.597,341.667 72.837,341.667 72.999 C 341.667 73.072,341.784 73.176,341.927 73.231 C 342.071 73.286,342.141 73.407,342.084 73.499 C 342.027 73.591,342.060 73.667,342.157 73.667 C 342.254 73.667,342.333 73.774,342.333 73.905 C 342.333 74.036,342.465 74.274,342.625 74.435 C 342.785 74.595,342.884 74.732,342.844 74.738 C 342.804 74.745,342.874 75.012,342.999 75.333 C 343.124 75.654,343.241 75.992,343.260 76.083 C 343.279 76.175,343.313 76.287,343.335 76.333 C 344.037 77.776,343.168 81.964,341.845 83.517 C 341.657 83.737,341.232 84.235,340.899 84.625 C 340.566 85.015,340.190 85.333,340.063 85.333 C 339.937 85.333,339.833 85.408,339.833 85.500 C 339.833 85.592,339.753 85.667,339.655 85.667 C 339.557 85.667,339.363 85.780,339.225 85.918 C 339.086 86.057,338.904 86.127,338.820 86.075 C 338.736 86.023,338.667 86.060,338.667 86.157 C 338.667 86.254,338.610 86.324,338.542 86.314 C 338.473 86.303,338.379 86.308,338.333 86.326 C 337.407 86.688,334.731 86.826,333.646 86.569 C 333.337 86.496,333.046 86.429,333.000 86.422 C 332.721 86.376,331.833 85.898,331.833 85.793 C 331.833 85.723,331.759 85.667,331.669 85.667 C 331.294 85.667,329.667 84.082,329.667 83.717 C 329.667 83.598,329.601 83.500,329.520 83.500 C 329.302 83.500,328.207 81.184,328.072 80.437 C 327.741 78.612,328.190 75.209,328.871 74.375 C 328.964 74.260,328.983 74.167,328.911 74.167 C 328.840 74.167,328.888 74.035,329.017 73.875 C 329.147 73.715,329.399 73.294,329.578 72.941 C 330.235 71.648,332.277 70.278,333.875 70.060 C 334.265 70.007,334.606 69.943,334.633 69.918 C 334.783 69.781,336.733 69.999,337.667 70.256 M145.458 102.930 C 145.420 102.969,145.170 103.033,144.903 103.074 C 144.369 103.156,143.773 103.289,143.708 103.341 C 143.685 103.360,143.592 103.394,143.500 103.417 C 143.408 103.440,143.277 103.477,143.208 103.499 C 143.140 103.521,143.027 103.531,142.958 103.520 C 142.890 103.509,142.833 103.579,142.833 103.677 C 142.833 103.774,142.758 103.807,142.667 103.750 C 142.575 103.693,142.500 103.731,142.500 103.833 C 142.500 103.936,142.433 103.978,142.351 103.927 C 142.269 103.877,142.159 103.947,142.106 104.084 C 142.053 104.221,141.903 104.333,141.772 104.333 C 141.549 104.333,140.103 105.873,139.761 106.475 C 139.675 106.626,139.506 106.849,139.386 106.970 C 139.265 107.091,139.167 107.286,139.167 107.403 C 139.167 107.520,139.039 107.871,138.883 108.183 C 138.526 108.896,138.456 112.356,138.792 112.692 C 138.906 112.806,139.000 113.067,139.000 113.271 C 139.000 113.476,139.094 113.744,139.208 113.867 C 139.323 113.990,139.441 114.202,139.470 114.337 C 139.545 114.679,140.355 115.506,140.517 115.406 C 140.590 115.361,140.732 115.478,140.833 115.667 C 140.934 115.855,141.088 115.965,141.175 115.911 C 141.262 115.858,141.333 115.898,141.333 116.000 C 141.333 116.102,141.408 116.140,141.500 116.083 C 141.592 116.027,141.667 116.064,141.667 116.167 C 141.667 116.269,141.742 116.307,141.833 116.250 C 141.925 116.193,142.000 116.226,142.000 116.323 C 142.000 116.421,142.056 116.491,142.125 116.480 C 142.194 116.469,142.306 116.479,142.375 116.501 C 142.444 116.523,142.556 116.557,142.625 116.576 C 142.694 116.596,142.938 116.690,143.167 116.785 C 143.396 116.881,143.895 117.003,144.276 117.056 C 144.657 117.109,145.145 117.191,145.359 117.238 C 145.574 117.285,146.012 117.360,146.333 117.404 C 146.654 117.449,147.329 117.578,147.833 117.691 C 148.337 117.805,148.814 117.880,148.893 117.859 C 148.971 117.839,149.128 117.899,149.241 117.993 C 149.355 118.087,149.497 118.114,149.557 118.054 C 149.617 117.994,149.667 118.044,149.667 118.167 C 149.667 118.289,149.714 118.342,149.771 118.284 C 149.947 118.109,150.803 118.642,150.916 118.998 C 150.975 119.183,151.105 119.333,151.206 119.333 C 151.306 119.333,151.339 119.384,151.277 119.445 C 151.216 119.506,151.275 119.724,151.409 119.928 C 151.752 120.451,151.658 122.716,151.276 123.138 C 151.124 123.306,151.000 123.525,151.000 123.625 C 151.000 123.845,149.681 125.000,149.428 125.001 C 149.330 125.002,149.048 125.108,148.801 125.237 C 147.498 125.916,142.898 125.184,142.000 124.155 C 141.954 124.102,141.782 124.009,141.616 123.948 C 141.201 123.795,140.685 122.552,140.696 121.734 C 140.717 120.222,140.577 120.000,139.606 120.000 L 138.738 120.000 138.725 120.875 C 138.707 122.209,138.420 125.283,138.249 125.972 C 138.188 126.219,138.217 126.322,138.327 126.254 C 138.422 126.195,138.500 126.231,138.500 126.333 C 138.500 126.436,138.575 126.473,138.667 126.417 C 138.758 126.360,138.833 126.378,138.833 126.457 C 138.833 126.594,140.150 127.130,140.782 127.251 C 140.948 127.282,141.121 127.322,141.167 127.340 C 141.212 127.357,141.325 127.386,141.417 127.404 C 141.508 127.421,141.696 127.484,141.833 127.544 C 143.653 128.333,149.304 127.966,151.310 126.929 C 151.575 126.792,151.838 126.727,151.896 126.784 C 151.953 126.842,152.000 126.797,152.000 126.685 C 152.000 126.572,152.064 126.520,152.141 126.568 C 152.283 126.655,152.835 126.252,154.051 125.173 C 156.586 122.924,157.247 118.922,155.620 115.677 C 155.392 115.222,154.720 114.500,154.524 114.500 C 154.454 114.500,154.227 114.343,154.021 114.150 C 153.815 113.958,153.557 113.787,153.448 113.771 C 153.339 113.754,153.143 113.674,153.013 113.593 C 152.882 113.511,152.507 113.390,152.180 113.322 C 151.852 113.255,151.171 113.116,150.667 113.013 C 150.162 112.909,149.525 112.788,149.250 112.742 C 147.983 112.533,146.049 112.114,145.669 111.966 C 145.439 111.877,145.113 111.776,144.946 111.742 C 144.675 111.688,143.520 110.579,143.487 110.342 C 143.480 110.292,143.431 110.100,143.377 109.917 C 142.545 107.073,144.669 104.998,148.167 105.236 C 149.037 105.296,149.881 105.347,150.042 105.349 C 150.202 105.352,150.333 105.429,150.333 105.520 C 150.333 105.612,150.403 105.643,150.488 105.590 C 150.574 105.538,150.691 105.572,150.750 105.667 C 150.809 105.761,150.926 105.796,151.012 105.743 C 151.097 105.690,151.167 105.731,151.167 105.833 C 151.167 105.936,151.242 105.973,151.333 105.917 C 151.425 105.860,151.500 105.906,151.500 106.018 C 151.500 106.130,151.546 106.176,151.603 106.119 C 151.711 106.011,152.193 106.416,152.159 106.586 C 152.149 106.640,152.243 106.849,152.368 107.050 C 152.494 107.252,152.617 107.867,152.642 108.417 C 152.698 109.642,152.751 109.700,153.765 109.635 C 154.536 109.586,154.579 109.558,154.610 109.083 C 154.629 108.808,154.686 108.171,154.737 107.667 C 154.789 107.162,154.875 106.227,154.928 105.588 C 154.982 104.949,155.057 104.375,155.096 104.314 C 155.156 104.215,154.812 104.011,154.580 104.008 C 154.534 104.007,154.254 103.881,153.957 103.727 C 152.787 103.122,151.783 102.969,148.639 102.915 C 146.928 102.885,145.497 102.892,145.458 102.930 M198.473 105.572 C 197.588 105.883,196.602 106.261,196.283 106.412 L 195.703 106.688 195.754 109.336 L 195.806 111.984 195.087 112.332 C 193.764 112.972,193.453 113.449,193.645 114.538 C 193.666 114.657,194.985 114.563,195.522 114.404 C 195.908 114.289,195.998 114.661,195.851 115.778 C 195.781 116.312,195.749 118.716,195.781 121.118 L 195.838 125.487 196.285 126.206 C 196.981 127.323,198.131 127.841,200.120 127.933 C 201.652 128.004,202.833 127.681,202.833 127.190 C 202.833 127.126,203.040 126.844,203.292 126.563 C 204.871 124.802,204.777 124.353,202.852 124.465 C 200.721 124.588,200.528 124.104,200.445 118.417 L 200.389 114.583 202.548 114.583 L 204.706 114.583 204.984 113.478 C 205.374 111.930,205.481 112.000,202.738 112.000 L 200.336 112.000 200.419 111.341 C 200.509 110.630,200.611 109.361,200.752 107.238 C 200.801 106.498,200.871 105.736,200.908 105.546 C 200.955 105.299,200.870 105.171,200.612 105.102 C 200.127 104.972,200.283 104.937,198.473 105.572 M184.004 110.658 C 183.686 110.740,183.369 110.772,183.300 110.730 C 183.232 110.687,182.990 110.774,182.763 110.923 C 182.537 111.072,182.291 111.188,182.217 111.182 C 181.942 111.159,181.500 111.361,181.500 111.511 C 181.500 111.597,181.406 111.667,181.291 111.667 C 180.880 111.667,179.354 113.471,179.145 114.204 C 178.905 115.047,178.921 117.917,179.167 117.917 C 179.181 117.917,179.219 118.056,179.251 118.227 C 179.313 118.558,180.498 119.755,180.708 119.700 C 180.777 119.682,180.833 119.737,180.833 119.822 C 180.833 119.980,181.481 120.260,181.708 120.200 C 181.777 120.182,181.833 120.250,181.833 120.351 C 181.833 120.453,181.937 120.496,182.063 120.448 C 182.189 120.399,182.365 120.432,182.454 120.521 C 182.543 120.610,182.834 120.708,183.100 120.739 C 183.366 120.770,183.602 120.813,183.625 120.835 C 183.648 120.857,183.723 120.890,183.792 120.909 C 183.860 120.928,184.109 120.999,184.343 121.065 C 184.578 121.132,184.878 121.208,185.010 121.235 C 185.142 121.261,185.362 121.331,185.500 121.390 C 185.637 121.448,185.938 121.529,186.167 121.569 C 186.396 121.609,186.621 121.656,186.667 121.674 C 186.713 121.692,186.806 121.697,186.875 121.686 C 186.944 121.676,187.000 121.746,187.000 121.843 C 187.000 121.940,187.067 121.978,187.149 121.928 C 187.231 121.877,187.345 122.023,187.402 122.251 C 187.459 122.480,187.576 122.667,187.662 122.667 C 187.747 122.667,187.794 123.130,187.766 123.696 C 187.715 124.731,187.097 125.683,186.655 125.409 C 186.570 125.357,186.500 125.388,186.500 125.479 C 186.500 125.941,182.561 125.560,182.030 125.046 C 181.909 124.929,181.753 124.833,181.683 124.833 C 181.530 124.833,180.797 123.303,180.841 123.077 C 180.859 122.989,180.864 122.654,180.853 122.333 L 180.834 121.750 180.000 121.808 C 179.542 121.840,179.158 121.915,179.148 121.974 C 179.062 122.473,178.988 123.526,178.933 125.031 C 178.868 126.845,178.875 126.870,179.500 127.083 C 179.546 127.099,179.778 127.192,180.015 127.291 C 181.449 127.890,184.892 128.100,186.542 127.690 C 186.885 127.605,187.167 127.574,187.167 127.621 C 187.167 127.669,187.260 127.630,187.375 127.535 C 187.490 127.439,187.640 127.355,187.708 127.348 C 187.777 127.340,187.852 127.328,187.875 127.321 C 187.898 127.314,188.059 127.281,188.232 127.248 C 189.085 127.088,191.068 125.332,191.637 124.234 C 192.535 122.499,191.913 118.978,190.582 118.261 C 190.262 118.089,190.000 117.887,190.000 117.814 C 190.000 117.645,188.145 117.090,186.228 116.686 C 184.721 116.369,183.090 115.710,183.075 115.414 C 183.071 115.324,183.012 115.091,182.946 114.897 C 182.458 113.473,184.392 112.399,186.542 112.900 C 187.069 113.023,187.500 113.090,187.500 113.050 C 187.500 113.009,187.604 113.075,187.731 113.196 C 187.859 113.318,188.121 113.547,188.315 113.707 C 188.508 113.866,188.667 114.135,188.667 114.304 C 188.667 114.473,188.723 114.667,188.792 114.736 C 188.860 114.805,188.926 115.005,188.938 115.181 C 188.949 115.356,188.968 115.650,188.979 115.833 C 188.997 116.119,189.118 116.167,189.820 116.167 C 190.805 116.167,190.783 116.231,190.823 113.214 L 190.851 111.178 190.242 110.924 C 189.519 110.622,184.911 110.426,184.004 110.658 M213.840 110.697 C 213.619 110.778,213.342 110.808,213.225 110.763 C 213.107 110.718,212.963 110.758,212.905 110.852 C 212.847 110.946,212.704 110.986,212.587 110.941 C 212.470 110.896,212.290 110.944,212.187 111.046 C 212.084 111.149,212.000 111.172,212.000 111.096 C 212.000 111.021,211.895 111.046,211.767 111.153 C 211.639 111.259,211.358 111.380,211.143 111.421 C 210.927 111.463,210.726 111.573,210.695 111.666 C 210.664 111.759,210.570 111.793,210.486 111.741 C 210.402 111.689,210.333 111.731,210.333 111.833 C 210.333 111.936,210.258 111.973,210.167 111.917 C 210.075 111.860,210.000 111.893,210.000 111.990 C 210.000 112.087,209.893 112.167,209.762 112.167 C 209.552 112.167,207.735 113.860,207.222 114.534 C 206.393 115.624,205.909 120.710,206.512 122.000 C 206.533 122.046,206.563 122.158,206.578 122.250 C 206.695 122.963,206.886 123.500,207.023 123.500 C 207.113 123.500,207.144 123.569,207.092 123.653 C 207.040 123.738,207.107 123.916,207.241 124.050 C 207.375 124.184,207.438 124.340,207.381 124.397 C 207.324 124.454,207.365 124.500,207.472 124.500 C 207.579 124.500,207.667 124.594,207.667 124.708 C 207.667 124.823,207.948 125.169,208.292 125.478 C 208.635 125.786,208.767 125.936,208.583 125.811 C 208.278 125.602,208.269 125.607,208.477 125.873 C 208.602 126.033,208.768 126.124,208.845 126.076 C 208.922 126.028,209.109 126.179,209.261 126.410 C 209.412 126.641,209.603 126.789,209.685 126.739 C 209.767 126.688,209.833 126.731,209.833 126.833 C 209.833 126.936,209.908 126.973,210.000 126.917 C 210.092 126.860,210.167 126.898,210.167 127.000 C 210.167 127.102,210.242 127.140,210.333 127.083 C 210.425 127.027,210.500 127.064,210.500 127.167 C 210.500 127.269,210.575 127.307,210.667 127.250 C 210.758 127.193,210.833 127.226,210.833 127.323 C 210.833 127.421,210.890 127.488,210.958 127.473 C 211.027 127.458,211.308 127.543,211.583 127.662 C 212.255 127.952,215.827 127.972,216.938 127.692 C 217.408 127.573,217.896 127.456,218.022 127.430 C 220.229 126.982,221.976 124.767,220.634 124.117 C 220.138 123.877,220.057 123.883,219.426 124.212 C 218.720 124.580,218.571 124.630,217.750 124.771 C 214.611 125.313,211.983 123.414,211.266 120.083 L 211.158 119.583 213.788 119.576 C 215.234 119.571,217.054 119.512,217.833 119.444 C 219.240 119.320,219.623 119.274,220.931 119.070 L 221.612 118.963 221.562 117.523 C 221.399 112.883,219.518 110.849,215.163 110.600 C 214.657 110.572,214.062 110.615,213.840 110.697 M235.453 110.602 C 235.407 110.648,235.193 110.707,234.977 110.733 C 234.760 110.759,234.293 110.905,233.938 111.057 C 233.583 111.209,233.227 111.333,233.146 111.333 C 233.066 111.333,233.000 111.408,233.000 111.500 C 233.000 111.592,232.891 111.667,232.758 111.667 C 232.625 111.667,232.457 111.762,232.383 111.879 C 232.310 111.997,231.935 112.338,231.549 112.638 L 230.848 113.183 230.799 111.966 L 230.750 110.750 230.083 110.729 C 229.717 110.718,229.331 110.777,229.226 110.860 C 229.121 110.943,228.971 111.000,228.893 110.986 C 228.814 110.972,228.713 110.975,228.667 110.993 C 228.528 111.047,227.938 111.186,227.583 111.247 C 227.400 111.279,227.250 111.321,227.250 111.341 C 227.250 111.360,227.100 111.398,226.917 111.425 C 226.733 111.452,226.321 111.518,226.000 111.572 C 225.371 111.678,224.021 111.862,223.750 111.879 C 223.658 111.884,223.583 112.312,223.583 112.829 L 223.583 113.770 224.462 113.795 C 226.095 113.842,226.058 113.693,226.062 120.333 C 226.064 125.616,226.048 125.685,224.801 125.748 C 224.315 125.773,223.842 125.802,223.750 125.813 C 223.654 125.824,223.607 126.220,223.640 126.750 L 223.698 127.667 228.432 127.667 L 233.167 127.667 233.167 126.750 C 233.167 126.246,233.110 125.825,233.042 125.815 C 232.869 125.791,231.822 125.706,231.414 125.685 C 231.045 125.665,230.928 123.771,230.941 118.017 L 230.946 115.617 231.711 114.894 L 232.475 114.172 233.613 114.255 C 235.154 114.368,235.167 114.370,235.167 114.528 C 235.167 114.604,235.279 114.667,235.417 114.667 C 235.627 114.667,235.764 115.032,235.625 115.224 C 235.602 115.256,235.686 115.406,235.812 115.558 C 235.938 115.709,235.996 115.833,235.941 115.833 C 235.886 115.833,235.924 116.040,236.024 116.292 C 236.430 117.309,236.508 123.567,236.131 124.820 C 235.903 125.579,235.896 125.583,234.667 125.730 C 234.280 125.776,234.250 125.843,234.250 126.681 L 234.250 127.583 238.917 127.583 L 243.583 127.583 243.633 126.725 L 243.683 125.866 242.508 125.668 C 241.862 125.559,241.324 125.383,241.313 125.277 C 241.078 123.031,241.088 116.647,241.328 115.883 C 241.693 114.721,242.294 114.283,243.536 114.274 C 245.469 114.260,245.775 114.387,245.935 115.272 C 245.982 115.529,246.099 115.836,246.197 115.953 C 246.294 116.071,246.318 116.167,246.250 116.167 C 246.182 116.167,246.219 116.279,246.333 116.417 C 246.447 116.554,246.493 116.667,246.435 116.667 C 246.377 116.667,246.434 116.919,246.563 117.226 C 246.790 117.770,246.803 120.900,246.588 123.500 C 246.546 124.004,246.472 125.149,246.424 126.045 L 246.336 127.673 250.043 127.628 L 253.750 127.583 253.800 126.708 C 253.828 126.227,253.791 125.828,253.717 125.822 C 251.296 125.618,251.520 126.182,251.435 120.081 C 251.348 113.821,251.214 113.054,249.994 111.830 C 248.445 110.275,244.896 110.083,243.326 111.471 C 243.152 111.624,242.782 111.938,242.504 112.167 C 242.226 112.396,241.814 112.752,241.590 112.958 C 241.048 113.456,240.735 113.431,240.530 112.875 C 240.077 111.646,238.455 110.682,236.670 110.583 C 236.047 110.548,235.499 110.557,235.453 110.602 M260.986 110.568 C 260.948 110.606,260.555 110.676,260.113 110.725 C 259.671 110.773,259.214 110.891,259.098 110.988 C 258.981 111.085,258.837 111.114,258.776 111.054 C 258.716 110.994,258.667 111.044,258.667 111.167 C 258.667 111.289,258.623 111.345,258.569 111.291 C 258.516 111.238,258.326 111.319,258.147 111.472 C 257.969 111.625,257.794 111.712,257.759 111.667 C 257.637 111.505,256.233 113.119,255.874 113.833 C 255.404 114.768,255.270 117.337,255.670 117.737 C 255.760 117.826,255.833 118.054,255.833 118.242 C 255.833 118.592,256.784 119.618,257.036 119.540 C 257.113 119.516,257.219 119.610,257.272 119.747 C 257.325 119.885,257.435 119.957,257.517 119.906 C 257.600 119.855,257.667 119.898,257.667 120.000 C 257.667 120.102,257.742 120.140,257.833 120.083 C 257.925 120.027,258.000 120.072,258.000 120.185 C 258.000 120.297,258.049 120.340,258.110 120.279 C 258.170 120.219,258.320 120.253,258.443 120.355 C 258.566 120.457,258.667 120.485,258.667 120.417 C 258.667 120.348,258.760 120.368,258.875 120.460 C 259.065 120.614,260.014 120.894,260.417 120.916 C 260.508 120.921,260.658 120.971,260.750 121.026 C 260.895 121.114,261.752 121.340,262.250 121.422 C 262.342 121.437,262.473 121.470,262.542 121.495 C 262.610 121.521,262.723 121.554,262.792 121.568 C 262.860 121.583,263.104 121.699,263.333 121.826 C 263.563 121.953,263.787 122.044,263.833 122.028 C 263.879 122.013,263.918 122.056,263.919 122.125 C 263.921 122.194,263.994 122.362,264.081 122.500 C 264.169 122.638,264.253 122.825,264.268 122.917 C 264.380 123.606,264.380 123.814,264.266 124.299 C 263.968 125.568,260.944 126.173,259.173 125.317 C 258.812 125.143,258.437 125.000,258.341 125.000 C 258.245 125.000,258.167 124.888,258.167 124.750 C 258.167 124.612,258.101 124.500,258.020 124.500 C 257.792 124.500,257.456 123.553,257.410 122.782 C 257.388 122.398,257.361 122.034,257.351 121.974 C 257.341 121.915,256.958 121.840,256.500 121.808 L 255.666 121.750 255.646 122.333 C 255.635 122.654,255.605 123.179,255.581 123.500 C 255.316 126.995,255.331 127.086,256.167 127.235 C 256.396 127.275,256.621 127.323,256.667 127.341 C 256.712 127.358,256.814 127.361,256.893 127.347 C 256.971 127.333,257.121 127.392,257.226 127.478 C 257.599 127.783,261.486 128.003,262.500 127.776 C 262.637 127.745,263.050 127.655,263.417 127.576 C 264.339 127.376,264.328 127.379,264.375 127.341 C 264.398 127.323,264.539 127.284,264.689 127.255 C 265.023 127.190,266.593 126.162,267.180 125.625 C 269.005 123.954,268.898 118.195,267.042 118.170 C 266.927 118.168,266.833 118.110,266.833 118.041 C 266.833 117.837,265.033 117.204,263.417 116.839 C 261.375 116.379,260.167 115.999,260.167 115.818 C 260.167 115.735,260.062 115.667,259.934 115.667 C 259.638 115.667,259.500 115.302,259.500 114.518 C 259.500 113.234,261.067 112.467,262.883 112.862 C 263.360 112.966,263.844 113.052,263.958 113.053 C 264.073 113.054,264.167 113.122,264.167 113.204 C 264.167 113.286,264.242 113.307,264.333 113.250 C 264.425 113.193,264.500 113.231,264.500 113.333 C 264.500 113.436,264.575 113.473,264.667 113.417 C 264.758 113.360,264.833 113.431,264.833 113.573 C 264.833 113.716,264.921 113.833,265.028 113.833 C 265.135 113.833,265.175 113.881,265.117 113.939 C 265.059 113.996,265.101 114.203,265.211 114.397 C 265.409 114.748,265.428 114.827,265.523 115.708 C 265.570 116.142,265.618 116.167,266.425 116.167 L 267.277 116.167 267.252 115.542 C 267.239 115.198,267.290 114.221,267.366 113.371 C 267.510 111.766,267.322 110.931,266.802 110.858 C 264.720 110.566,261.169 110.389,260.986 110.568 M158.000 111.833 C 158.000 112.699,158.052 112.747,158.963 112.711 C 159.552 112.687,160.265 113.798,161.181 116.167 C 161.482 116.946,161.808 117.638,161.906 117.706 C 162.003 117.773,162.018 117.829,161.938 117.831 C 161.858 117.832,161.876 117.934,161.978 118.057 C 162.080 118.180,162.114 118.330,162.054 118.390 C 161.994 118.451,162.036 118.500,162.149 118.500 C 162.261 118.500,162.310 118.570,162.257 118.655 C 162.204 118.740,162.239 118.858,162.333 118.917 C 162.428 118.975,162.462 119.093,162.410 119.178 C 162.357 119.264,162.406 119.333,162.518 119.333 C 162.630 119.333,162.673 119.383,162.613 119.443 C 162.552 119.503,162.586 119.653,162.689 119.776 C 162.791 119.899,162.823 120.000,162.761 120.000 C 162.699 120.000,162.755 120.206,162.887 120.458 C 163.200 121.058,163.430 121.608,163.689 122.375 C 163.805 122.719,163.965 123.000,164.043 123.000 C 164.122 123.000,164.143 123.070,164.090 123.155 C 164.038 123.240,164.072 123.358,164.167 123.417 C 164.261 123.475,164.296 123.593,164.243 123.678 C 164.190 123.764,164.231 123.833,164.333 123.833 C 164.436 123.833,164.477 123.903,164.424 123.988 C 164.371 124.074,164.405 124.191,164.500 124.250 C 164.595 124.309,164.629 124.426,164.576 124.512 C 164.523 124.597,164.560 124.667,164.657 124.667 C 164.754 124.667,164.821 124.723,164.807 124.792 C 164.776 124.936,164.954 125.451,165.179 125.873 C 165.264 126.032,165.333 126.229,165.333 126.311 C 165.333 126.392,165.459 126.750,165.613 127.105 C 166.238 128.549,166.201 128.732,164.721 131.547 C 164.093 132.740,163.280 133.308,162.274 133.257 C 161.363 133.211,160.333 132.905,160.333 132.681 C 160.333 132.391,159.166 132.495,159.145 132.786 C 159.115 133.213,159.056 133.648,158.914 134.500 C 158.714 135.700,158.729 136.255,158.960 136.208 C 159.073 136.185,159.167 136.242,159.167 136.333 C 159.167 136.425,159.223 136.488,159.292 136.474 C 159.360 136.459,159.551 136.506,159.714 136.577 C 160.017 136.709,162.593 136.610,163.308 136.440 C 164.482 136.159,167.044 133.074,167.410 131.500 C 167.421 131.454,167.553 131.154,167.704 130.833 C 167.995 130.216,168.537 128.973,168.577 128.833 C 168.590 128.787,168.772 128.375,168.981 127.917 C 169.505 126.771,169.904 125.872,170.239 125.083 C 170.395 124.717,170.589 124.267,170.670 124.083 C 170.927 123.505,171.386 122.420,171.410 122.333 C 171.423 122.287,171.605 121.875,171.814 121.417 C 172.328 120.293,172.834 119.155,173.000 118.750 C 173.238 118.169,173.820 116.861,174.205 116.042 C 174.410 115.606,174.585 115.212,174.594 115.167 C 174.831 113.977,175.935 112.667,176.701 112.667 C 177.249 112.667,177.250 112.665,177.250 111.830 L 177.250 110.993 173.833 111.038 L 170.417 111.083 170.366 111.875 C 170.338 112.310,170.375 112.677,170.449 112.690 C 170.523 112.703,170.865 112.728,171.209 112.746 C 172.469 112.811,172.465 113.474,171.184 116.556 C 170.624 117.901,170.167 119.049,170.167 119.107 C 170.167 119.270,168.806 122.029,168.755 121.970 C 168.612 121.801,166.380 116.008,165.979 114.764 C 165.419 113.027,165.402 112.842,165.792 112.808 C 165.952 112.794,166.271 112.764,166.500 112.743 C 166.729 112.721,167.067 112.696,167.250 112.685 C 167.545 112.669,167.577 112.570,167.526 111.833 L 167.468 111.000 162.734 111.000 L 158.000 111.000 158.000 111.833 M215.003 113.001 C 215.185 113.099,215.333 113.138,215.333 113.089 C 215.333 113.040,215.473 113.131,215.643 113.292 C 215.813 113.452,215.948 113.621,215.942 113.667 C 215.936 113.712,216.074 114.013,216.248 114.333 C 216.646 115.066,216.677 115.201,216.717 116.375 L 216.750 117.333 213.873 117.333 L 210.995 117.333 211.072 116.458 C 211.332 113.514,213.083 111.974,215.003 113.001 " stroke="none" fill="#0D8" fill-rule="evenodd"></path></g></svg>